<svg width="168" height="43" viewBox="0 0 168 43" fill="none" xmlns="http://www.w3.org/2000/svg">
<path fill-rule="evenodd" clip-rule="evenodd" d="M0.00188932 42.1522V25.4068H57.7447V42.1522H0.00188932ZM3.38974 37.3185V38.9229H7.90771V37.3185H6.45542V34.7783C6.45542 33.7692 6.90836 33.0647 7.90721 33.0647C8.72907 33.0647 9.19841 33.5447 9.19841 34.7946V38.9229H12.1025V37.3185H11.1345V34.7783C11.1345 33.7692 11.5874 33.0647 12.5863 33.0647C13.4081 33.0647 13.8775 33.5447 13.8775 34.7946V38.9229H16.9431V37.3185H15.9746V33.9937C15.9746 32.2796 14.754 31.4944 13.4489 31.4944C12.3054 31.4944 11.4552 32.0872 11.0524 33.0484C10.6979 31.9913 9.72394 31.4944 8.67686 31.4944C7.6621 31.4944 6.93968 31.9587 6.45542 32.728V31.7036H3.38974V33.1472H4.35777V37.3185H3.38974ZM25.5778 35.2593C25.5778 33.2407 24.305 31.4944 21.6948 31.4944C19.085 31.4944 17.7963 33.2407 17.7963 35.3552C17.7963 37.6621 19.3431 39.0237 21.5824 39.0237C23.9023 39.0237 25.5778 37.5662 25.5778 35.2593ZM26.9039 31.7036L26.6458 34.187L28.1443 34.2997L28.467 33.1472H30.7382L26.7428 37.7734L26.9526 38.9229H33.2997L33.7512 36.3683L32.1079 36.1848L31.7694 37.3185H29.4171L33.4449 32.773L33.2838 31.7036H26.9039ZM35.3362 38.9233H37.4338V36.1957H35.3362V38.9233ZM35.3362 34.2705H37.4338V31.7036H35.3362V34.2705ZM41.9498 27.8527L38.8081 38.9229H40.8545L43.9962 27.8527H41.9498ZM48.2174 27.8527H46.171L43.0297 38.9229H45.0756L48.2174 27.8527ZM48.6718 32.1515L48.3889 33.8132L50.0495 33.9897L50.2857 33.1764C50.6243 33.0004 50.9659 32.9683 51.4004 32.9683C52.5773 32.9683 52.6001 33.8493 52.6001 34.5864V34.8267C52.2775 34.7783 51.8036 34.7625 51.4004 34.7625C49.7418 34.7625 48.0106 35.1792 48.0106 36.9576C48.0106 38.4631 49.2033 39.0242 50.2499 39.0242C51.4263 39.0242 52.1671 38.3187 52.5862 37.582C52.6832 38.4631 53.2146 39.0242 54.1812 39.0242C54.6321 39.0242 55.104 38.8957 55.4903 38.688L55.4789 37.5979C55.3655 37.63 55.277 37.6463 55.1805 37.6463C54.842 37.6463 54.6973 37.5019 54.6973 37.0857V33.9457C54.6973 32.2954 53.3603 31.4944 51.7972 31.4944C50.6054 31.4944 49.9446 31.6388 48.6718 32.1515ZM11.8282 16.7237C10.7169 17.0579 9.56643 17.225 8.37716 17.225C5.94639 17.225 3.94321 16.4409 2.36613 14.8726C0.789041 13.3044 0 11.2862 0 8.81817C0 7.42989 0.293342 6.05891 0.879529 4.70523C1.46522 3.35106 2.37905 2.22827 3.62004 1.33687C4.86103 0.445952 6.44657 0 8.37716 0C9.79017 0 10.9969 0.197761 11.9967 0.591306C12.9961 0.98584 13.7891 1.4491 14.3748 1.97959L14.8148 5.60455L12.4621 5.83643L12.0484 3.52213C11.0143 2.85419 9.77326 2.51997 8.32545 2.51997C6.73941 2.51997 5.4681 3.06827 4.512 4.16485C3.55541 5.26243 3.07711 6.76195 3.07711 8.66441C3.07711 10.6524 3.58524 12.1564 4.60249 13.1763C5.61924 14.1958 6.95519 14.7055 8.60984 14.7055C9.98855 14.7055 11.1177 14.4657 11.9967 13.9857L12.4099 11.4919L14.7631 11.7233L14.4011 15.3745C13.7975 15.9396 12.9404 16.39 11.8282 16.7237ZM26.9268 15.5673C25.7803 16.6728 24.2937 17.225 22.467 17.225C20.6916 17.225 19.2651 16.6945 18.1877 15.631C17.1108 14.5686 16.5718 13.1294 16.5718 11.3119C16.5718 9.63295 17.0805 8.1888 18.0977 6.97998C19.1145 5.77166 20.6224 5.1675 22.6217 5.1675C24.6388 5.1675 26.1467 5.76771 27.1466 6.96762C28.1459 8.16754 28.6461 9.58104 28.6461 11.2091C28.6461 13.0092 28.0728 14.4613 26.9268 15.5673ZM22.5704 7.32755C21.588 7.32755 20.8208 7.67462 20.2694 8.36876C19.7176 9.06241 19.4421 9.99238 19.4421 11.1582C19.4421 12.2548 19.7046 13.1803 20.2307 13.9347C20.7562 14.6887 21.5363 15.0659 22.5704 15.0659C23.5698 15.0659 24.3544 14.7021 24.9231 13.9733C25.4919 13.2446 25.7763 12.2978 25.7763 11.1325C25.7763 9.89844 25.479 8.95562 24.8844 8.30399C24.2897 7.65336 23.5181 7.32755 22.5704 7.32755ZM36.7384 14.8602V16.9683H30.0681V14.8602H31.8003V7.55834H30.0939V5.42499H34.5666V7.32745C34.9286 6.69313 35.4109 6.17895 36.0145 5.78491C36.6175 5.39087 37.3499 5.19311 38.212 5.19311C39.0737 5.19311 39.8493 5.40373 40.5394 5.82347C41.228 6.24322 41.7108 6.8988 41.9872 7.78972C42.3313 7.00164 42.8309 6.37226 43.4862 5.9006C44.1415 5.42944 44.9425 5.19311 45.8906 5.19311C46.9417 5.19311 47.864 5.52782 48.6575 6.19625C49.4495 6.86469 49.8463 7.90986 49.8463 9.33225V14.8602H51.5526V16.9683H46.4336V14.8602H47.0799V10.3354C47.0799 9.23881 46.886 8.46309 46.4982 8.00874C46.1109 7.55487 45.563 7.32745 44.8565 7.32745C43.9426 7.32745 43.2749 7.63596 42.8528 8.25297C42.4302 8.86999 42.2104 9.57303 42.194 10.3606V14.8602H43.9257V16.9683H38.8067V14.8602H39.4272V10.3354C39.4272 9.23881 39.2338 8.46309 38.8455 8.00874C38.4577 7.55487 37.9187 7.32745 37.2296 7.32745C36.3337 7.32745 35.6699 7.632 35.2388 8.23962C34.8078 8.84873 34.5835 9.54732 34.5666 10.3354V14.8602H36.7384ZM72.3647 9.33245V14.8604H74.071V16.968H68.952V14.8604H69.5983V10.3351C69.5983 9.23901 69.4044 8.4628 69.0166 8.00844C68.6288 7.55458 68.0814 7.32715 67.3749 7.32715C66.461 7.32715 65.7933 7.63566 65.3712 8.25268C64.9486 8.86969 64.7288 9.57273 64.7119 10.3608V14.8604H66.4441V16.968H61.3251V14.8604H61.9456V10.3351C61.9456 9.23901 61.7517 8.4628 61.3638 8.00844C60.976 7.55458 60.4371 7.32715 59.748 7.32715C58.8515 7.32715 58.1878 7.6322 57.7572 8.23982C57.3262 8.84843 57.1019 9.54752 57.085 10.3351V14.8604H59.2568V16.968H52.5865V14.8604H54.3187V7.55853H52.6118V5.42518H57.085V7.32715C57.447 6.69333 57.9293 6.17915 58.5328 5.78462C59.1359 5.39058 59.8683 5.19331 60.7304 5.19331C61.5921 5.19331 62.3677 5.40392 63.0573 5.82318C63.7464 6.24342 64.2292 6.899 64.5051 7.78991C64.8496 7.00183 65.3493 6.37246 66.0046 5.9008C66.6594 5.42914 67.4609 5.19331 68.409 5.19331C69.4601 5.19331 70.3824 5.52802 71.1754 6.19596C71.9679 6.86489 72.3647 7.91005 72.3647 9.33245ZM21.6469 37.4383C20.5188 37.4383 19.9386 36.4771 19.9386 35.2268C19.9386 33.8652 20.5998 33.0806 21.6628 33.0806C22.6458 33.0806 23.4353 33.7377 23.4353 35.1952C23.4353 36.5731 22.7263 37.4383 21.6469 37.4383ZM51.0074 37.5505C50.379 37.5505 50.1533 37.1812 50.1533 36.7169C50.1533 35.9318 50.7981 35.7237 51.5389 35.7237C51.8775 35.7237 52.2479 35.7721 52.5865 35.8201C52.5378 37.0215 51.7487 37.5505 51.0074 37.5505ZM76.5527 6.97993C77.5694 5.77161 79.0779 5.16745 81.0771 5.16745C83.0942 5.16745 84.6022 5.76766 85.602 6.96757C86.6009 8.16749 87.101 9.58099 87.101 11.2091C87.101 13.0092 86.5283 14.4612 85.3818 15.5672C84.2357 16.6727 82.7486 17.225 80.9225 17.225C79.1465 17.225 77.7206 16.6945 76.6431 15.6315C75.5662 14.5685 75.0273 13.1293 75.0273 11.3119C75.0273 9.6329 75.5359 8.18875 76.5527 6.97993ZM81.0259 15.0659C82.0247 15.0659 82.8093 14.702 83.3786 13.9733C83.9474 13.2445 84.2318 12.2977 84.2318 11.1324C84.2318 9.89839 83.9339 8.95606 83.3398 8.30394C82.7452 7.65331 81.9735 7.3275 81.0259 7.3275C80.0434 7.3275 79.2763 7.67457 78.7249 8.36871C78.1725 9.06236 77.8976 9.99233 77.8976 11.1581C77.8976 12.2547 78.1601 13.1802 78.6861 13.9347C79.2111 14.6887 79.9917 15.0659 81.0259 15.0659ZM100.907 9.33245V14.8604H102.639V16.968H96.4342V14.8604H98.1406V10.3351C98.1406 9.23901 97.9422 8.4628 97.546 8.00844C97.1492 7.55458 96.5978 7.32715 95.8913 7.32715C95.0123 7.32715 94.3182 7.61045 93.8101 8.17555C93.3014 8.74164 93.0384 9.43529 93.0215 10.258V14.8604H94.7537V16.968H88.5229V14.8604H90.2552V7.55853H88.4454V5.42518H93.0215V7.30194C93.8319 5.89635 95.1157 5.19331 96.8737 5.19331C97.9765 5.19331 98.9247 5.52802 99.7177 6.19596C100.51 6.86489 100.907 7.91005 100.907 9.33245ZM124.538 0.257436V2.69929H122.986L116.988 16.9683H114.919L108.922 2.69929H107.318V0.257436H113.937V2.69929H112.076L116.057 12.5977H116.187L120.065 2.69929H118.178V0.257436H124.538ZM124.925 6.97993C125.942 5.77161 127.45 5.16745 129.449 5.16745C131.466 5.16745 132.974 5.76766 133.974 6.96757C134.973 8.16749 135.473 9.58099 135.473 11.2091C135.473 13.0092 134.9 14.4612 133.754 15.5672C132.608 16.6727 131.121 17.225 129.295 17.225C127.519 17.225 126.093 16.6945 125.015 15.6315C123.938 14.5685 123.399 13.1293 123.399 11.3119C123.399 9.6329 123.908 8.18875 124.925 6.97993ZM129.398 15.0659C130.397 15.0659 131.181 14.702 131.751 13.9733C132.319 13.2445 132.604 12.2977 132.604 11.1324C132.604 9.89839 132.306 8.95606 131.712 8.30394C131.117 7.65331 130.346 7.3275 129.398 7.3275C128.416 7.3275 127.648 7.67457 127.097 8.36871C126.545 9.06236 126.27 9.99233 126.27 11.1581C126.27 12.2547 126.532 13.1802 127.058 13.9347C127.583 14.6887 128.364 15.0659 129.398 15.0659ZM141.471 5.42504V14.8602H143.203V16.9684H136.998V14.8602H138.731V7.55838H136.895V5.42504H141.471ZM138.576 3.0345V0.000346082H141.394V3.0345H138.576ZM147.288 11.2607C147.288 13.7634 148.279 15.0142 150.261 15.0142C151.709 15.0142 152.579 14.1401 152.873 12.3919L155.199 12.829C155.079 13.8573 154.622 14.8471 153.829 15.7984C153.036 16.7496 151.761 17.2252 150.003 17.2252C148.348 17.2252 146.999 16.7283 145.957 15.7341C144.914 14.7403 144.393 13.2922 144.393 11.3893C144.393 9.52141 144.931 8.02139 146.008 6.8902C147.085 5.759 148.494 5.19341 150.235 5.19341C150.925 5.19341 151.614 5.27943 152.304 5.4505C152.993 5.62206 153.674 5.90485 154.346 6.29889L154.812 9.53822L152.588 9.7701L152.2 7.86714C151.562 7.55863 150.89 7.40438 150.184 7.40438C148.253 7.40438 147.288 8.68983 147.288 11.2607ZM165.153 13.009L167.454 13.4461C167.351 14.4576 166.85 15.3401 165.955 16.0941C165.059 16.8486 163.826 17.2248 162.257 17.2248C160.568 17.2248 159.181 16.7324 158.095 15.747C157.009 14.7617 156.467 13.3091 156.467 11.3894C156.467 9.62385 156.962 8.15004 157.953 6.96742C158.944 5.78481 160.327 5.19351 162.103 5.19351C163.705 5.19351 164.977 5.66912 165.916 6.62035C166.855 7.57159 167.333 8.77595 167.351 10.2325C167.351 10.7125 167.299 11.2267 167.196 11.775H159.362C159.517 13.9346 160.552 15.0143 162.464 15.0143C163.361 15.0143 164.003 14.8003 164.39 14.3716C164.778 13.9435 165.032 13.4891 165.153 13.009ZM162.077 7.22451C161.25 7.22451 160.62 7.49891 160.189 8.0472C159.759 8.59549 159.492 9.27283 159.388 10.0782H164.507C164.575 9.39297 164.416 8.74579 164.029 8.13718C163.641 7.52907 162.99 7.22451 162.077 7.22451Z" fill="#2C2C2C"/>
</svg>
