<svg width="327" height="33" viewBox="0 0 327 33" fill="none" xmlns="http://www.w3.org/2000/svg">
<path d="M14.624 20.08C13.184 20.08 11.828 19.66 10.556 18.82C8.924 17.716 7.892 17.164 7.46 17.164C6.356 17.164 5.804 18.124 5.804 20.044H0.728V19.396C0.728 16.78 1.232 14.788 2.24 13.42C3.248 12.028 4.712 11.332 6.632 11.332C8.168 11.332 9.596 11.788 10.916 12.7C11.9 13.396 12.548 13.828 12.86 13.996C13.196 14.164 13.508 14.248 13.796 14.248C14.9 14.248 15.452 13.288 15.452 11.368H20.528V12.016C20.528 14.632 20.024 16.636 19.016 18.028C18.008 19.396 16.544 20.08 14.624 20.08ZM42.9734 28H24.3614V23.068C27.4094 20.476 29.7974 18.184 31.5254 16.192C32.8934 14.608 33.8414 13.324 34.3694 12.34C34.9214 11.356 35.1974 10.396 35.1974 9.46C35.1974 8.5 34.8854 7.732 34.2614 7.156C33.6614 6.58 32.8574 6.292 31.8494 6.292C29.6174 6.292 27.5414 7.252 25.6214 9.172L24.5054 3.7C26.8094 1.66 29.6654 0.639998 33.0734 0.639998C35.8574 0.639998 38.0534 1.36 39.6614 2.8C41.2934 4.24 42.1094 6.184 42.1094 8.632C42.1094 11.752 40.4414 15.136 37.1054 18.784C35.9054 20.104 34.7294 21.256 33.5774 22.24H42.9734V28ZM57.1029 28.108L50.0109 27.928L59.3349 7.336H47.5989V1.216H66.6069V6.58L57.1029 28.108ZM80.4483 22.636C82.5843 22.636 83.6523 19.96 83.6523 14.608C83.6523 9.256 82.5843 6.58 80.4483 6.58C79.3443 6.58 78.5283 7.228 78.0003 8.524C77.4963 9.796 77.2443 11.824 77.2443 14.608C77.2443 17.392 77.4963 19.432 78.0003 20.728C78.5283 22 79.3443 22.636 80.4483 22.636ZM80.4483 28.576C77.2083 28.576 74.6763 27.364 72.8523 24.94C71.0283 22.492 70.1163 19.048 70.1163 14.608C70.1163 10.216 71.0043 6.796 72.7803 4.348C74.5803 1.876 77.1363 0.639998 80.4483 0.639998C83.6883 0.639998 86.2203 1.864 88.0443 4.312C89.8683 6.736 90.7803 10.168 90.7803 14.608C90.7803 19 89.8803 22.432 88.0803 24.904C86.3043 27.352 83.7603 28.576 80.4483 28.576ZM111.456 22.636C113.592 22.636 114.66 19.96 114.66 14.608C114.66 9.256 113.592 6.58 111.456 6.58C110.352 6.58 109.536 7.228 109.008 8.524C108.504 9.796 108.252 11.824 108.252 14.608C108.252 17.392 108.504 19.432 109.008 20.728C109.536 22 110.352 22.636 111.456 22.636ZM111.456 28.576C108.216 28.576 105.684 27.364 103.86 24.94C102.036 22.492 101.124 19.048 101.124 14.608C101.124 10.216 102.012 6.796 103.788 4.348C105.588 1.876 108.144 0.639998 111.456 0.639998C114.696 0.639998 117.228 1.864 119.052 4.312C120.876 6.736 121.788 10.168 121.788 14.608C121.788 19 120.888 22.432 119.088 24.904C117.312 27.352 114.768 28.576 111.456 28.576ZM134.73 22.636C136.866 22.636 137.934 19.96 137.934 14.608C137.934 9.256 136.866 6.58 134.73 6.58C133.626 6.58 132.81 7.228 132.282 8.524C131.778 9.796 131.526 11.824 131.526 14.608C131.526 17.392 131.778 19.432 132.282 20.728C132.81 22 133.626 22.636 134.73 22.636ZM134.73 28.576C131.49 28.576 128.958 27.364 127.134 24.94C125.31 22.492 124.398 19.048 124.398 14.608C124.398 10.216 125.286 6.796 127.062 4.348C128.862 1.876 131.418 0.639998 134.73 0.639998C137.97 0.639998 140.502 1.864 142.326 4.312C144.15 6.736 145.062 10.168 145.062 14.608C145.062 19 144.162 22.432 142.362 24.904C140.586 27.352 138.042 28.576 134.73 28.576ZM158.003 22.636C160.139 22.636 161.207 19.96 161.207 14.608C161.207 9.256 160.139 6.58 158.003 6.58C156.899 6.58 156.083 7.228 155.555 8.524C155.051 9.796 154.799 11.824 154.799 14.608C154.799 17.392 155.051 19.432 155.555 20.728C156.083 22 156.899 22.636 158.003 22.636ZM158.003 28.576C154.763 28.576 152.231 27.364 150.407 24.94C148.583 22.492 147.671 19.048 147.671 14.608C147.671 10.216 148.559 6.796 150.335 4.348C152.135 1.876 154.691 0.639998 158.003 0.639998C161.243 0.639998 163.775 1.864 165.599 4.312C167.423 6.736 168.335 10.168 168.335 14.608C168.335 19 167.435 22.432 165.635 24.904C163.859 27.352 161.315 28.576 158.003 28.576Z" fill="url(#paint0_linear_739_560)"/>
<path d="M184.533 28.32C183.173 28.32 182.033 27.8267 181.113 26.84C180.193 25.84 179.733 24.56 179.733 23C179.693 21.6 180.166 20.36 181.153 19.28C182.139 18.2 183.333 17.6667 184.733 17.68C185.493 17.68 186.186 17.8667 186.813 18.24C187.453 18.6133 187.966 19.14 188.353 19.82V11.8H190.053V28H188.393L188.353 26.18C187.553 27.6067 186.279 28.32 184.533 28.32ZM182.453 25.74C183.119 26.4467 183.959 26.8 184.973 26.8C185.986 26.8 186.826 26.4467 187.493 25.74C188.146 25.0467 188.473 24.1333 188.473 23C188.473 21.8667 188.146 20.9533 187.493 20.26C186.826 19.5533 185.986 19.2 184.973 19.2C183.959 19.2 183.119 19.5533 182.453 20.26C181.799 20.9533 181.473 21.8667 181.473 23C181.473 24.1333 181.799 25.0467 182.453 25.74ZM197.755 28.32C196.395 28.32 195.255 27.8267 194.335 26.84C193.415 25.84 192.955 24.56 192.955 23C192.915 21.6 193.389 20.36 194.375 19.28C195.362 18.2 196.555 17.6667 197.955 17.68C198.715 17.68 199.409 17.8667 200.035 18.24C200.675 18.6133 201.189 19.14 201.575 19.82L201.615 18H203.275V28H201.615L201.575 26.18C200.775 27.6067 199.502 28.32 197.755 28.32ZM195.675 25.74C196.342 26.4467 197.182 26.8 198.195 26.8C199.209 26.8 200.049 26.4467 200.715 25.74C201.369 25.0467 201.695 24.1333 201.695 23C201.695 21.8667 201.369 20.9533 200.715 20.26C200.049 19.5533 199.209 19.2 198.195 19.2C197.182 19.2 196.342 19.5533 195.675 20.26C195.022 20.9533 194.695 21.8667 194.695 23C194.695 24.1333 195.022 25.0467 195.675 25.74ZM206.878 28V18H208.478L208.498 19.74C208.778 19.0867 209.211 18.58 209.798 18.22C210.385 17.86 211.065 17.68 211.838 17.68C213.025 17.68 213.938 18.0533 214.578 18.8C215.218 19.5333 215.538 20.5867 215.538 21.96V28H213.838V22.26C213.838 20.2067 213.038 19.18 211.438 19.18C210.545 19.18 209.845 19.4733 209.338 20.06C208.831 20.6467 208.578 21.4533 208.578 22.48V28H206.878ZM228.117 28.32C226.651 28.32 225.411 27.82 224.397 26.82C223.384 25.8067 222.877 24.5333 222.877 23C222.851 21.5733 223.344 20.3267 224.357 19.26C225.384 18.1933 226.637 17.6667 228.117 17.68C229.584 17.68 230.824 18.1867 231.837 19.2C232.851 20.2 233.357 21.4667 233.357 23C233.384 24.4267 232.884 25.6733 231.857 26.74C230.844 27.8067 229.597 28.3333 228.117 28.32ZM225.597 25.74C226.264 26.4467 227.104 26.8 228.117 26.8C229.131 26.8 229.971 26.4467 230.637 25.74C231.291 25.0467 231.617 24.1333 231.617 23C231.617 21.8667 231.291 20.9533 230.637 20.26C229.971 19.5533 229.131 19.2 228.117 19.2C227.104 19.2 226.264 19.5533 225.597 20.26C224.944 20.9533 224.617 21.8667 224.617 23C224.617 24.1333 224.944 25.0467 225.597 25.74ZM236.253 28V18H237.853L237.873 20.08C238.153 19.3733 238.56 18.8267 239.093 18.44C239.626 18.0533 240.233 17.86 240.913 17.86C241.353 17.86 241.746 17.9333 242.093 18.08L241.913 19.68C241.526 19.52 241.126 19.44 240.713 19.44C239.846 19.44 239.166 19.7667 238.673 20.42C238.193 21.06 237.953 21.9467 237.953 23.08V28H236.253ZM245.768 28V19.46H243.468V18H245.768V15.12H247.468V18H250.268V19.46H247.468V28H245.768ZM252.659 28V18H254.359V28H252.659ZM254.319 14.98C254.106 15.2067 253.833 15.32 253.499 15.32C253.166 15.32 252.886 15.2067 252.659 14.98C252.446 14.7533 252.339 14.4667 252.339 14.12C252.339 13.7733 252.446 13.4867 252.659 13.26C252.886 13.0333 253.166 12.92 253.499 12.92C253.833 12.92 254.106 13.0333 254.319 13.26C254.546 13.4867 254.659 13.7733 254.659 14.12C254.659 14.4667 254.546 14.7533 254.319 14.98ZM267.572 32.9H265.872V26.18C265.072 27.6067 263.799 28.32 262.052 28.32C260.692 28.32 259.552 27.8267 258.632 26.84C257.712 25.84 257.252 24.56 257.252 23C257.212 21.6 257.686 20.36 258.672 19.28C259.659 18.2 260.852 17.6667 262.252 17.68C263.012 17.68 263.706 17.8667 264.332 18.24C264.972 18.6133 265.486 19.14 265.872 19.82L265.912 18H267.572V32.9ZM259.972 25.74C260.639 26.4467 261.479 26.8 262.492 26.8C263.506 26.8 264.346 26.4467 265.012 25.74C265.666 25.0467 265.992 24.1333 265.992 23C265.992 21.8667 265.666 20.9533 265.012 20.26C264.346 19.5533 263.506 19.2 262.492 19.2C261.479 19.2 260.639 19.5533 259.972 20.26C259.319 20.9533 258.992 21.8667 258.992 23C258.992 24.1333 259.319 25.0467 259.972 25.74ZM275.667 32.9V18H277.367V32.9H275.667ZM277.327 14.98C277.114 15.2067 276.841 15.32 276.507 15.32C276.174 15.32 275.894 15.2067 275.667 14.98C275.454 14.7533 275.347 14.4667 275.347 14.12C275.347 13.7733 275.454 13.4867 275.667 13.26C275.894 13.0333 276.174 12.92 276.507 12.92C276.841 12.92 277.114 13.0333 277.327 13.26C277.554 13.4867 277.667 13.7733 277.667 14.12C277.667 14.4667 277.554 14.7533 277.327 14.98ZM288.36 27.22C287.6 27.9533 286.547 28.32 285.2 28.32C283.853 28.32 282.8 27.9533 282.04 27.22C281.28 26.4867 280.9 25.4733 280.9 24.18V18H282.6V24.18C282.6 25.94 283.473 26.82 285.22 26.82C286.94 26.82 287.8 25.94 287.8 24.18V18H289.5V24.18C289.5 25.4733 289.12 26.4867 288.36 27.22ZM293.03 28V18H294.63L294.65 19.72C294.917 19.08 295.337 18.58 295.91 18.22C296.497 17.86 297.17 17.68 297.93 17.68C299.57 17.68 300.657 18.4267 301.19 19.92C301.457 19.24 301.897 18.7 302.51 18.3C303.137 17.8867 303.844 17.68 304.63 17.68C305.817 17.68 306.73 18.0533 307.37 18.8C308.01 19.5333 308.33 20.5867 308.33 21.96V28H306.63V22.26C306.63 20.2067 305.83 19.18 304.23 19.18C303.39 19.18 302.73 19.4733 302.25 20.06C301.77 20.6467 301.53 21.4533 301.53 22.48V28H299.83V22.24C299.83 20.2 299.044 19.18 297.47 19.18C296.604 19.18 295.93 19.4733 295.45 20.06C294.97 20.6333 294.73 21.4333 294.73 22.46V28H293.03ZM311.878 28V11.8H313.578V28H311.878ZM321.271 28.32C319.911 28.32 318.771 27.8267 317.851 26.84C316.931 25.84 316.471 24.56 316.471 23C316.431 21.6 316.904 20.36 317.891 19.28C318.878 18.2 320.071 17.6667 321.471 17.68C322.231 17.68 322.924 17.8667 323.551 18.24C324.191 18.6133 324.704 19.14 325.091 19.82L325.131 18H326.791V28H325.131L325.091 26.18C324.291 27.6067 323.018 28.32 321.271 28.32ZM319.191 25.74C319.858 26.4467 320.698 26.8 321.711 26.8C322.724 26.8 323.564 26.4467 324.231 25.74C324.884 25.0467 325.211 24.1333 325.211 23C325.211 21.8667 324.884 20.9533 324.231 20.26C323.564 19.5533 322.724 19.2 321.711 19.2C320.698 19.2 319.858 19.5533 319.191 20.26C318.538 20.9533 318.211 21.8667 318.211 23C318.211 24.1333 318.538 25.0467 319.191 25.74Z" fill="#12273C"/>
<defs>
<linearGradient id="paint0_linear_739_560" x1="164" y1="-1" x2="164" y2="50" gradientUnits="userSpaceOnUse">
<stop stop-color="#33BFFA"/>
<stop offset="1" stop-color="#8D53FD"/>
</linearGradient>
</defs>
</svg>
