<svg width="282" height="33" viewBox="0 0 282 33" fill="none" xmlns="http://www.w3.org/2000/svg">
<path d="M111.423 28.32C110.796 28.32 110.17 28.2333 109.543 28.06C108.93 27.8867 108.436 27.66 108.063 27.38L108.323 25.88C109.216 26.56 110.25 26.9 111.423 26.9C112.17 26.9 112.75 26.7733 113.163 26.52C113.576 26.2533 113.783 25.8933 113.783 25.44C113.783 24.9867 113.623 24.6467 113.303 24.42C112.996 24.18 112.35 23.92 111.363 23.64C110.243 23.3067 109.443 22.9067 108.963 22.44C108.483 21.9733 108.243 21.3667 108.243 20.62C108.243 19.7133 108.576 19 109.243 18.48C109.923 17.9467 110.843 17.68 112.003 17.68C113.216 17.68 114.223 17.9467 115.023 18.48L114.743 19.92C113.876 19.3733 112.95 19.1 111.963 19.1C110.576 19.1 109.883 19.5467 109.883 20.44C109.883 20.8533 110.036 21.18 110.343 21.42C110.65 21.66 111.216 21.9 112.043 22.14C113.31 22.5133 114.203 22.94 114.723 23.42C115.243 23.8867 115.503 24.5267 115.503 25.34C115.503 26.2333 115.13 26.9533 114.383 27.5C113.636 28.0467 112.65 28.32 111.423 28.32ZM122.742 28.32C121.276 28.32 120.036 27.82 119.022 26.82C118.009 25.8067 117.502 24.5333 117.502 23C117.476 21.5733 117.969 20.3267 118.982 19.26C120.009 18.1933 121.262 17.6667 122.742 17.68C124.209 17.68 125.449 18.1867 126.462 19.2C127.476 20.2 127.982 21.4667 127.982 23C128.009 24.4267 127.509 25.6733 126.482 26.74C125.469 27.8067 124.222 28.3333 122.742 28.32ZM120.222 25.74C120.889 26.4467 121.729 26.8 122.742 26.8C123.756 26.8 124.596 26.4467 125.262 25.74C125.916 25.0467 126.242 24.1333 126.242 23C126.242 21.8667 125.916 20.9533 125.262 20.26C124.596 19.5533 123.756 19.2 122.742 19.2C121.729 19.2 120.889 19.5533 120.222 20.26C119.569 20.9533 119.242 21.8667 119.242 23C119.242 24.1333 119.569 25.0467 120.222 25.74ZM135.173 28.32C133.813 28.32 132.673 27.8267 131.753 26.84C130.833 25.84 130.373 24.56 130.373 23C130.333 21.6 130.807 20.36 131.793 19.28C132.78 18.2 133.973 17.6667 135.373 17.68C136.133 17.68 136.827 17.8667 137.453 18.24C138.093 18.6133 138.607 19.14 138.993 19.82L139.033 18H140.693V28H139.033L138.993 26.18C138.193 27.6067 136.92 28.32 135.173 28.32ZM133.093 25.74C133.76 26.4467 134.6 26.8 135.613 26.8C136.627 26.8 137.467 26.4467 138.133 25.74C138.787 25.0467 139.113 24.1333 139.113 23C139.113 21.8667 138.787 20.9533 138.133 20.26C137.467 19.5533 136.627 19.2 135.613 19.2C134.6 19.2 133.76 19.5533 133.093 20.26C132.44 20.9533 132.113 21.8667 132.113 23C132.113 24.1333 132.44 25.0467 133.093 25.74ZM145.276 28V19.46H142.976V18H145.276V15.12H146.976V18H149.776V19.46H146.976V28H145.276ZM156.072 28.32C154.712 28.32 153.572 27.8267 152.652 26.84C151.732 25.84 151.272 24.56 151.272 23C151.232 21.6 151.705 20.36 152.692 19.28C153.679 18.2 154.872 17.6667 156.272 17.68C157.032 17.68 157.725 17.8667 158.352 18.24C158.992 18.6133 159.505 19.14 159.892 19.82V11.8H161.592V28H159.932L159.892 26.18C159.092 27.6067 157.819 28.32 156.072 28.32ZM153.992 25.74C154.659 26.4467 155.499 26.8 156.512 26.8C157.525 26.8 158.365 26.4467 159.032 25.74C159.685 25.0467 160.012 24.1333 160.012 23C160.012 21.8667 159.685 20.9533 159.032 20.26C158.365 19.5533 157.525 19.2 156.512 19.2C155.499 19.2 154.659 19.5533 153.992 20.26C153.339 20.9533 153.012 21.8667 153.012 23C153.012 24.1333 153.339 25.0467 153.992 25.74ZM169.295 28.32C167.935 28.32 166.795 27.8267 165.875 26.84C164.955 25.84 164.495 24.56 164.495 23C164.455 21.6 164.928 20.36 165.915 19.28C166.901 18.2 168.095 17.6667 169.495 17.68C170.255 17.68 170.948 17.8667 171.575 18.24C172.215 18.6133 172.728 19.14 173.115 19.82L173.155 18H174.815V28H173.155L173.115 26.18C172.315 27.6067 171.041 28.32 169.295 28.32ZM167.215 25.74C167.881 26.4467 168.721 26.8 169.735 26.8C170.748 26.8 171.588 26.4467 172.255 25.74C172.908 25.0467 173.235 24.1333 173.235 23C173.235 21.8667 172.908 20.9533 172.255 20.26C171.588 19.5533 170.748 19.2 169.735 19.2C168.721 19.2 167.881 19.5533 167.215 20.26C166.561 20.9533 166.235 21.8667 166.235 23C166.235 24.1333 166.561 25.0467 167.215 25.74ZM178.417 28V18H180.017L180.037 19.74C180.317 19.0867 180.751 18.58 181.337 18.22C181.924 17.86 182.604 17.68 183.377 17.68C184.564 17.68 185.477 18.0533 186.117 18.8C186.757 19.5333 187.077 20.5867 187.077 21.96V28H185.377V22.26C185.377 20.2067 184.577 19.18 182.977 19.18C182.084 19.18 181.384 19.4733 180.877 20.06C180.371 20.6467 180.117 21.4533 180.117 22.48V28H178.417ZM195.116 28V11.8H196.816V22.02L201.396 18H203.596L198.476 22.4L204.396 28H202.076L196.816 22.96V28H195.116ZM210.945 28.32C209.479 28.32 208.239 27.82 207.225 26.82C206.212 25.8067 205.705 24.5333 205.705 23C205.679 21.5733 206.172 20.3267 207.185 19.26C208.212 18.1933 209.465 17.6667 210.945 17.68C212.412 17.68 213.652 18.1867 214.665 19.2C215.679 20.2 216.185 21.4667 216.185 23C216.212 24.4267 215.712 25.6733 214.685 26.74C213.672 27.8067 212.425 28.3333 210.945 28.32ZM208.425 25.74C209.092 26.4467 209.932 26.8 210.945 26.8C211.959 26.8 212.799 26.4467 213.465 25.74C214.119 25.0467 214.445 24.1333 214.445 23C214.445 21.8667 214.119 20.9533 213.465 20.26C212.799 19.5533 211.959 19.2 210.945 19.2C209.932 19.2 209.092 19.5533 208.425 20.26C207.772 20.9533 207.445 21.8667 207.445 23C207.445 24.1333 207.772 25.0467 208.425 25.74ZM217.985 17.4H216.685C217.258 15.8667 217.545 14.3333 217.545 12.8H219.345C219.265 14.3333 218.812 15.8667 217.985 17.4ZM221.054 32.9V18H222.654L222.694 19.94C223.067 19.22 223.587 18.6667 224.254 18.28C224.934 17.88 225.707 17.68 226.574 17.68C227.934 17.68 229.074 18.18 229.994 19.18C230.914 20.1667 231.374 21.44 231.374 23C231.414 24.4 230.941 25.64 229.954 26.72C228.967 27.8 227.774 28.3333 226.374 28.32C224.734 28.32 223.527 27.6133 222.754 26.2V32.9H221.054ZM223.614 25.74C224.281 26.4467 225.121 26.8 226.134 26.8C227.147 26.8 227.987 26.4467 228.654 25.74C229.307 25.0467 229.634 24.1333 229.634 23C229.634 21.8667 229.307 20.9533 228.654 20.26C227.987 19.5533 227.147 19.2 226.134 19.2C225.121 19.2 224.281 19.5533 223.614 20.26C222.961 20.9533 222.634 21.8667 222.634 23C222.634 24.1333 222.961 25.0467 223.614 25.74ZM243.309 28.32C241.842 28.32 240.602 27.82 239.589 26.82C238.575 25.8067 238.069 24.5333 238.069 23C238.042 21.5733 238.535 20.3267 239.549 19.26C240.575 18.1933 241.829 17.6667 243.309 17.68C244.775 17.68 246.015 18.1867 247.029 19.2C248.042 20.2 248.549 21.4667 248.549 23C248.575 24.4267 248.075 25.6733 247.049 26.74C246.035 27.8067 244.789 28.3333 243.309 28.32ZM240.789 25.74C241.455 26.4467 242.295 26.8 243.309 26.8C244.322 26.8 245.162 26.4467 245.829 25.74C246.482 25.0467 246.809 24.1333 246.809 23C246.809 21.8667 246.482 20.9533 245.829 20.26C245.162 19.5533 244.322 19.2 243.309 19.2C242.295 19.2 241.455 19.5533 240.789 20.26C240.135 20.9533 239.809 21.8667 239.809 23C239.809 24.1333 240.135 25.0467 240.789 25.74ZM253.872 28L249.752 18H251.592L254.752 26.1L257.912 18H259.632L255.532 28H253.872ZM266.082 28.32C264.616 28.32 263.376 27.82 262.362 26.82C261.349 25.8067 260.842 24.5333 260.842 23C260.816 21.5733 261.309 20.3267 262.322 19.26C263.349 18.1933 264.602 17.6667 266.082 17.68C267.549 17.68 268.789 18.1867 269.802 19.2C270.816 20.2 271.322 21.4667 271.322 23C271.349 24.4267 270.849 25.6733 269.822 26.74C268.809 27.8067 267.562 28.3333 266.082 28.32ZM263.562 25.74C264.229 26.4467 265.069 26.8 266.082 26.8C267.096 26.8 267.936 26.4467 268.602 25.74C269.256 25.0467 269.582 24.1333 269.582 23C269.582 21.8667 269.256 20.9533 268.602 20.26C267.936 19.5533 267.096 19.2 266.082 19.2C265.069 19.2 264.229 19.5533 263.562 20.26C262.909 20.9533 262.582 21.8667 262.582 23C262.582 24.1333 262.909 25.0467 263.562 25.74ZM273.418 28V26.56L279.558 19.46H273.638V18H281.558V19.44L275.378 26.54H281.698V28H273.418Z" fill="#12273C"/>
<path d="M14.8115 20.08C13.3715 20.08 12.0155 19.66 10.7435 18.82C9.1115 17.716 8.0795 17.164 7.6475 17.164C6.5435 17.164 5.9915 18.124 5.9915 20.044H0.9155V19.396C0.9155 16.78 1.4195 14.788 2.4275 13.42C3.4355 12.028 4.8995 11.332 6.8195 11.332C8.3555 11.332 9.7835 11.788 11.1035 12.7C12.0875 13.396 12.7355 13.828 13.0475 13.996C13.3835 14.164 13.6955 14.248 13.9835 14.248C15.0875 14.248 15.6395 13.288 15.6395 11.368H20.7155V12.016C20.7155 14.632 20.2115 16.636 19.2035 18.028C18.1955 19.396 16.7315 20.08 14.8115 20.08ZM32.4329 28.576C29.0489 28.576 26.3969 27.976 24.4769 26.776L25.0169 21.34C27.1289 22.516 29.4329 23.104 31.9289 23.104C33.3449 23.104 34.4369 22.804 35.2049 22.204C35.9969 21.604 36.3929 20.764 36.3929 19.684C36.3929 18.628 36.0209 17.812 35.2769 17.236C34.5329 16.66 33.4889 16.372 32.1449 16.372C31.2089 16.372 30.3929 16.468 29.6969 16.66L28.1489 13.096L34.3409 6.652H25.0529V1.216H42.3329V5.896L36.4289 11.944C38.5649 12.256 40.2329 13.096 41.4329 14.464C42.6329 15.832 43.2329 17.584 43.2329 19.72C43.2329 22.408 42.2609 24.568 40.3169 26.2C38.3729 27.784 35.7449 28.576 32.4329 28.576ZM57.3624 22.636C59.4984 22.636 60.5664 19.96 60.5664 14.608C60.5664 9.256 59.4984 6.58 57.3624 6.58C56.2584 6.58 55.4424 7.228 54.9144 8.524C54.4104 9.796 54.1584 11.824 54.1584 14.608C54.1584 17.392 54.4104 19.432 54.9144 20.728C55.4424 22 56.2584 22.636 57.3624 22.636ZM57.3624 28.576C54.1224 28.576 51.5904 27.364 49.7664 24.94C47.9424 22.492 47.0304 19.048 47.0304 14.608C47.0304 10.216 47.9184 6.796 49.6944 4.348C51.4944 1.876 54.0504 0.639998 57.3624 0.639998C60.6024 0.639998 63.1344 1.864 64.9584 4.312C66.7824 6.736 67.6944 10.168 67.6944 14.608C67.6944 19 66.7944 22.432 64.9944 24.904C63.2184 27.352 60.6744 28.576 57.3624 28.576ZM80.6358 22.636C82.7718 22.636 83.8398 19.96 83.8398 14.608C83.8398 9.256 82.7718 6.58 80.6358 6.58C79.5318 6.58 78.7158 7.228 78.1878 8.524C77.6838 9.796 77.4318 11.824 77.4318 14.608C77.4318 17.392 77.6838 19.432 78.1878 20.728C78.7158 22 79.5318 22.636 80.6358 22.636ZM80.6358 28.576C77.3958 28.576 74.8638 27.364 73.0398 24.94C71.2158 22.492 70.3038 19.048 70.3038 14.608C70.3038 10.216 71.1918 6.796 72.9678 4.348C74.7678 1.876 77.3238 0.639998 80.6358 0.639998C83.8758 0.639998 86.4078 1.864 88.2318 4.312C90.0558 6.736 90.9678 10.168 90.9678 14.608C90.9678 19 90.0678 22.432 88.2678 24.904C86.4918 27.352 83.9478 28.576 80.6358 28.576Z" fill="url(#paint0_linear_739_559)"/>
<defs>
<linearGradient id="paint0_linear_739_559" x1="137.5" y1="-1" x2="137.5" y2="50" gradientUnits="userSpaceOnUse">
<stop stop-color="#33BFFA"/>
<stop offset="1" stop-color="#8D53FD"/>
</linearGradient>
</defs>
</svg>
