<svg width="296" height="296" viewBox="0 0 296 296" fill="none" xmlns="http://www.w3.org/2000/svg">
<rect width="296" height="296" rx="24" fill="white"/>
<path d="M173.813 96.6289L130.018 140.424C125.749 144.692 125.749 151.613 130.018 155.882L130.018 155.882C134.287 160.15 141.207 160.15 145.476 155.882L189.271 112.087C193.54 107.818 193.54 100.898 189.271 96.629L189.271 96.6289C185.002 92.3603 178.082 92.3603 173.813 96.6289Z" fill="#081B45"/>
<path d="M173.813 199.726L130.018 155.931C125.749 151.663 125.749 144.742 130.018 140.473L130.018 140.473C134.287 136.205 141.207 136.205 145.476 140.473L189.271 184.268C193.54 188.537 193.54 195.458 189.271 199.726L189.271 199.726C185.002 203.995 178.082 203.995 173.813 199.726Z" fill="#081B45"/>
<path d="M100.428 192.442L100.428 103.316C100.428 97.2797 105.322 92.386 111.359 92.386L111.359 92.386C117.395 92.386 122.289 97.2797 122.289 103.316L122.289 192.442C122.289 198.478 117.395 203.372 111.359 203.372L111.359 203.372C105.322 203.372 100.428 198.478 100.428 192.442Z" fill="#FB6A55"/>
</svg>
