<svg width="65" height="65" viewBox="0 0 65 65" fill="none" xmlns="http://www.w3.org/2000/svg">
<circle opacity="0.15" cx="32.5" cy="32.5" r="32.5" fill="#F15A9E"/>
<g clip-path="url(#clip0_769_1347)">
<path d="M25.5 49.875H38.5" stroke="#F15A9E" stroke-width="3.25" stroke-linecap="round" stroke-linejoin="round"/>
<path d="M32 43.375V49.875" stroke="#F15A9E" stroke-width="3.25" stroke-linecap="round" stroke-linejoin="round"/>
<path d="M32 14.125C30.7071 14.125 29.4671 14.6386 28.5529 15.5529C27.6386 16.4671 27.125 17.7071 27.125 19V32C27.125 33.2929 27.6386 34.5329 28.5529 35.4471C29.4671 36.3614 30.7071 36.875 32 36.875C33.2929 36.875 34.5329 36.3614 35.4471 35.4471C36.3614 34.5329 36.875 33.2929 36.875 32V19C36.875 17.7071 36.3614 16.4671 35.4471 15.5529C34.5329 14.6386 33.2929 14.125 32 14.125V14.125Z" stroke="#F15A9E" stroke-width="3.25" stroke-linecap="round" stroke-linejoin="round"/>
<path d="M43.375 28.75V32C43.375 35.0168 42.1766 37.9101 40.0433 40.0433C37.9101 42.1766 35.0168 43.375 32 43.375C28.9832 43.375 26.0899 42.1766 23.9567 40.0433C21.8234 37.9101 20.625 35.0168 20.625 32V28.75" stroke="#F15A9E" stroke-width="3.25" stroke-linecap="round" stroke-linejoin="round"/>
</g>
<defs>
<clipPath id="clip0_769_1347">
<rect width="39" height="39" fill="white" transform="translate(12.5 12.5)"/>
</clipPath>
</defs>
</svg>
