<svg width="296" height="296" viewBox="0 0 296 296" fill="none" xmlns="http://www.w3.org/2000/svg">
<rect width="296" height="296" rx="24" fill="white"/>
<g clip-path="url(#clip0_836_2887)">
<path fill-rule="evenodd" clip-rule="evenodd" d="M74.0733 174.606V152.913H148.876V174.606H74.0733ZM78.4621 168.344V170.423H84.3149V168.344H82.4336V165.054C82.4336 163.746 83.0203 162.834 84.3143 162.834C85.379 162.834 85.987 163.456 85.987 165.075V170.423H89.7491V168.344H88.4951V165.054C88.4951 163.746 89.0818 162.834 90.3758 162.834C91.4405 162.834 92.0485 163.456 92.0485 165.075V170.423H96.0199V168.344H94.7652V164.037C94.7652 161.817 93.184 160.8 91.4933 160.8C90.0119 160.8 88.9105 161.568 88.3888 162.813C87.9295 161.443 86.6678 160.8 85.3113 160.8C83.9968 160.8 83.0609 161.401 82.4336 162.398V161.071H78.4621V162.941H79.7161V168.344H78.4621ZM107.206 165.677C107.206 163.062 105.557 160.8 102.175 160.8C98.7947 160.8 97.1252 163.062 97.1252 165.801C97.1252 168.79 99.1289 170.553 102.03 170.553C105.035 170.553 107.206 168.665 107.206 165.677ZM108.924 161.071L108.589 164.288L110.531 164.434L110.949 162.941H113.891L108.715 168.934L108.987 170.423H117.209L117.794 167.113L115.665 166.876L115.227 168.344H112.179L117.397 162.456L117.188 161.071H108.924ZM119.847 170.423H122.565V166.89H119.847V170.423ZM119.847 164.396H122.565V161.071H119.847V164.396ZM128.415 156.082L124.345 170.423H126.996L131.066 156.082H128.415ZM136.534 156.082H133.883L129.814 170.423H132.464L136.534 156.082ZM137.123 161.651L136.757 163.803L138.908 164.032L139.214 162.979C139.652 162.751 140.095 162.709 140.658 162.709C142.182 162.709 142.212 163.85 142.212 164.805V165.116C141.794 165.054 141.18 165.033 140.658 165.033C138.509 165.033 136.266 165.573 136.266 167.877C136.266 169.827 137.812 170.554 139.167 170.554C140.691 170.554 141.651 169.64 142.194 168.686C142.319 169.827 143.008 170.554 144.26 170.554C144.844 170.554 145.456 170.388 145.956 170.119L145.941 168.706C145.794 168.748 145.68 168.769 145.555 168.769C145.116 168.769 144.929 168.582 144.929 168.043V163.975C144.929 161.837 143.197 160.8 141.172 160.8C139.628 160.8 138.772 160.987 137.123 161.651ZM89.3937 141.665C87.9542 142.098 86.4637 142.314 84.9231 142.314C81.7741 142.314 79.1791 141.298 77.1361 139.267C75.093 137.235 74.0709 134.621 74.0709 131.424C74.0709 129.625 74.4509 127.849 75.2102 126.095C75.969 124.341 77.1528 122.887 78.7605 121.732C80.3681 120.578 82.4221 120 84.9231 120C86.7536 120 88.3168 120.256 89.612 120.766C90.9066 121.277 91.934 121.877 92.6927 122.564L93.2627 127.26L90.2149 127.561L89.679 124.563C88.3393 123.697 86.7317 123.265 84.8561 123.265C82.8015 123.265 81.1545 123.975 79.9159 125.395C78.6767 126.817 78.0571 128.76 78.0571 131.224C78.0571 133.8 78.7154 135.748 80.0332 137.069C81.3503 138.39 83.081 139.05 85.2245 139.05C87.0106 139.05 88.4733 138.74 89.612 138.118L90.1473 134.887L93.1957 135.187L92.7268 139.917C91.9449 140.649 90.8345 141.232 89.3937 141.665ZM108.953 140.167C107.468 141.599 105.542 142.314 103.176 142.314C100.876 142.314 99.0279 141.627 97.6322 140.249C96.2371 138.873 95.5389 137.009 95.5389 134.654C95.5389 132.479 96.1978 130.608 97.5156 129.042C98.8328 127.477 100.786 126.694 103.376 126.694C105.989 126.694 107.943 127.472 109.238 129.026C110.533 130.581 111.181 132.412 111.181 134.521C111.181 136.853 110.438 138.734 108.953 140.167ZM103.31 129.493C102.037 129.493 101.043 129.942 100.329 130.841C99.6141 131.74 99.2572 132.945 99.2572 134.455C99.2572 135.875 99.5973 137.074 100.279 138.052C100.96 139.029 101.97 139.517 103.31 139.517C104.604 139.517 105.621 139.046 106.358 138.102C107.094 137.158 107.463 135.931 107.463 134.422C107.463 132.823 107.078 131.602 106.307 130.757C105.537 129.915 104.537 129.493 103.31 129.493ZM121.664 139.251V141.982H113.023V139.251H115.267V129.791H113.056V127.028H118.85V129.492C119.319 128.671 119.944 128.005 120.726 127.494C121.507 126.984 122.456 126.727 123.573 126.727C124.689 126.727 125.694 127 126.588 127.544C127.48 128.088 128.105 128.937 128.463 130.091C128.909 129.07 129.556 128.255 130.405 127.644C131.254 127.034 132.292 126.727 133.52 126.727C134.882 126.727 136.076 127.161 137.104 128.027C138.13 128.893 138.644 130.247 138.644 132.09V139.251H140.855V141.982H134.223V139.251H135.061V133.389C135.061 131.968 134.81 130.964 134.307 130.375C133.805 129.787 133.096 129.492 132.18 129.492C130.997 129.492 130.132 129.892 129.585 130.691C129.037 131.491 128.753 132.401 128.731 133.422V139.251H130.975V141.982H124.343V139.251H125.147V133.389C125.147 131.968 124.896 130.964 124.393 130.375C123.891 129.787 123.193 129.492 122.3 129.492C121.139 129.492 120.28 129.887 119.721 130.674C119.163 131.463 118.872 132.368 118.85 133.389V139.251H121.664ZM167.816 132.09V139.251H170.027V141.981H163.395V139.251H164.232V133.389C164.232 131.969 163.981 130.963 163.479 130.375C162.976 129.787 162.267 129.492 161.352 129.492C160.168 129.492 159.303 129.892 158.756 130.691C158.209 131.49 157.924 132.401 157.902 133.422V139.251H160.146V141.981H153.515V139.251H154.319V133.389C154.319 131.969 154.067 130.963 153.565 130.375C153.063 129.787 152.364 129.492 151.472 129.492C150.31 129.492 149.451 129.887 148.893 130.674C148.334 131.463 148.044 132.368 148.022 133.389V139.251H150.835V141.981H142.194V139.251H144.438V129.792H142.227V127.028H148.022V129.492C148.491 128.671 149.116 128.005 149.897 127.494C150.679 126.983 151.628 126.728 152.744 126.728C153.861 126.728 154.865 127.001 155.759 127.544C156.651 128.088 157.277 128.937 157.634 130.091C158.081 129.071 158.728 128.255 159.577 127.644C160.425 127.033 161.463 126.728 162.692 126.728C164.053 126.728 165.248 127.161 166.275 128.027C167.302 128.893 167.816 130.247 167.816 132.09ZM102.113 168.5C100.652 168.5 99.9004 167.254 99.9004 165.635C99.9004 163.871 100.757 162.854 102.134 162.854C103.407 162.854 104.43 163.706 104.43 165.594C104.43 167.379 103.512 168.5 102.113 168.5ZM140.149 168.645C139.335 168.645 139.042 168.167 139.042 167.565C139.042 166.548 139.877 166.278 140.837 166.278C141.276 166.278 141.756 166.341 142.194 166.403C142.131 167.96 141.109 168.645 140.149 168.645ZM173.241 129.042C174.559 127.477 176.513 126.694 179.103 126.694C181.716 126.694 183.669 127.472 184.964 129.026C186.258 130.581 186.906 132.412 186.906 134.521C186.906 136.853 186.164 138.734 184.679 140.167C183.194 141.599 181.268 142.314 178.902 142.314C176.602 142.314 174.754 141.627 173.359 140.25C171.963 138.873 171.265 137.008 171.265 134.654C171.265 132.479 171.924 130.608 173.241 129.042ZM179.036 139.517C180.33 139.517 181.347 139.046 182.084 138.102C182.821 137.158 183.189 135.931 183.189 134.422C183.189 132.823 182.803 131.602 182.034 130.757C181.263 129.915 180.264 129.492 179.036 129.492C177.763 129.492 176.77 129.942 176.055 130.841C175.34 131.74 174.984 132.945 174.984 134.455C174.984 135.875 175.324 137.074 176.005 138.052C176.685 139.029 177.696 139.517 179.036 139.517ZM204.791 132.09V139.251H207.035V141.981H198.997V139.251H201.208V133.389C201.208 131.969 200.951 130.963 200.437 130.375C199.923 129.787 199.209 129.492 198.294 129.492C197.155 129.492 196.256 129.859 195.598 130.591C194.939 131.324 194.598 132.223 194.576 133.289V139.251H196.82V141.981H188.748V139.251H190.992V129.792H188.648V127.028H194.576V129.459C195.626 127.638 197.289 126.728 199.566 126.728C200.995 126.728 202.223 127.161 203.251 128.027C204.277 128.893 204.791 130.247 204.791 132.09ZM235.404 120.333V123.497H233.394L225.623 141.982H222.944L215.174 123.497H213.097V120.333H221.672V123.497H219.26L224.417 136.32H224.586L229.609 123.497H227.164V120.333H235.404ZM235.905 129.042C237.222 127.477 239.177 126.694 241.766 126.694C244.379 126.694 246.333 127.472 247.628 129.026C248.922 130.581 249.57 132.412 249.57 134.521C249.57 136.853 248.828 138.734 247.343 140.167C245.858 141.599 243.932 142.314 241.566 142.314C239.265 142.314 237.418 141.627 236.022 140.25C234.627 138.873 233.929 137.008 233.929 134.654C233.929 132.479 234.588 130.608 235.905 129.042ZM241.7 139.517C242.994 139.517 244.01 139.046 244.748 138.102C245.485 137.158 245.853 135.931 245.853 134.422C245.853 132.823 245.467 131.602 244.698 130.757C243.927 129.915 242.928 129.492 241.7 129.492C240.427 129.492 239.434 129.942 238.719 130.841C238.004 131.74 237.647 132.945 237.647 134.455C237.647 135.875 237.988 137.074 238.669 138.052C239.349 139.029 240.36 139.517 241.7 139.517ZM257.34 127.028V139.251H259.584V141.982H251.546V139.251H253.79V129.792H251.412V127.028H257.34ZM253.589 123.931V120H257.24V123.931H253.589ZM264.876 134.588C264.876 137.83 266.16 139.45 268.728 139.45C270.603 139.45 271.73 138.318 272.11 136.053L275.125 136.619C274.968 137.952 274.377 139.234 273.35 140.466C272.322 141.698 270.67 142.314 268.393 142.314C266.249 142.314 264.502 141.671 263.151 140.383C261.8 139.095 261.125 137.219 261.125 134.754C261.125 132.335 261.822 130.391 263.218 128.926C264.613 127.461 266.438 126.728 268.694 126.728C269.587 126.728 270.48 126.839 271.373 127.061C272.266 127.283 273.149 127.649 274.019 128.16L274.622 132.356L271.742 132.657L271.24 130.192C270.413 129.792 269.542 129.592 268.627 129.592C266.126 129.592 264.876 131.257 264.876 134.588ZM288.019 136.853L291 137.419C290.866 138.729 290.218 139.872 289.058 140.849C287.897 141.827 286.299 142.314 284.268 142.314C282.08 142.314 280.283 141.676 278.876 140.4C277.469 139.123 276.766 137.241 276.766 134.754C276.766 132.467 277.408 130.558 278.691 129.026C279.975 127.494 281.767 126.728 284.068 126.728C286.144 126.728 287.791 127.344 289.008 128.576C290.224 129.809 290.843 131.369 290.866 133.256C290.866 133.878 290.8 134.544 290.666 135.254H280.517C280.718 138.052 282.058 139.45 284.536 139.45C285.697 139.45 286.529 139.173 287.031 138.618C287.534 138.063 287.863 137.475 288.019 136.853ZM284.034 129.359C282.962 129.359 282.146 129.714 281.589 130.425C281.031 131.135 280.685 132.013 280.551 133.056H287.182C287.271 132.168 287.065 131.33 286.563 130.541C286.06 129.754 285.217 129.359 284.034 129.359Z" fill="black"/>
<path fill-rule="evenodd" clip-rule="evenodd" d="M53.4063 135.946L52.7859 125.225L53.0113 125.022C53.4875 124.594 53.6951 123.934 53.6951 122.937C53.6951 121.747 52.6719 120.845 51.3616 120.845C50.1424 120.845 49.0495 121.871 49.0495 122.937C49.0495 123.877 49.2785 124.557 49.7626 125.002L49.9786 125.2L49.5117 135.946H53.4063ZM14.4003 142.472C10.111 142.472 6.63002 146.004 6.63002 150.365V156.749C6.63002 161.111 10.111 164.643 14.4003 164.643H58.0818C62.3712 164.643 65.8521 161.111 65.8521 156.749V150.365C65.8521 146.004 62.3712 142.472 58.0818 142.472H14.4003Z" fill="#F3F2F1" stroke="black" stroke-width="1.68448"/>
<path fill-rule="evenodd" clip-rule="evenodd" d="M49.6815 133.796H22.8006C15.7277 133.796 9.99014 139.618 9.99014 146.804V157.481C9.99014 165.146 15.4579 171.681 22.9042 172.922C31.7362 174.395 40.7459 174.395 49.5779 172.922C57.0242 171.681 62.492 165.146 62.492 157.481V146.804C62.492 139.618 56.7545 133.796 49.6815 133.796Z" fill="#F3F2F1" stroke="black" stroke-width="1.68448"/>
<path fill-rule="evenodd" clip-rule="evenodd" d="M46.3214 138.217H26.1607C20.7042 138.217 16.7104 141.716 16.7104 146.804V158.062C16.7104 163.607 20.8106 168.265 26.2326 168.887C32.8837 169.651 39.5984 169.651 46.2495 168.887C51.6715 168.265 55.7717 163.607 55.7717 158.062V146.804C55.7717 141.716 51.778 138.217 46.3214 138.217Z" fill="white" stroke="black" stroke-width="1.68448"/>
<path fill-rule="evenodd" clip-rule="evenodd" d="M28.4366 157.033H43.8135C43.8135 157.033 43.0277 162.147 36.241 162.147C29.8033 162.147 28.4366 157.033 28.4366 157.033ZM28.9306 144.538C28.6296 144.782 28.4366 145.16 28.4366 145.583C28.4366 146.32 29.0211 146.918 29.7422 146.918C30.2403 146.918 30.6733 146.633 30.8934 146.213C31.2197 146.783 31.4066 147.446 31.4066 148.154C31.4066 150.278 29.7217 152 27.6433 152C25.5649 152 23.88 150.278 23.88 148.154C23.88 146.029 25.5649 144.307 27.6433 144.307C28.0954 144.307 28.529 144.388 28.9306 144.538ZM46.0522 144.49C45.8391 144.733 45.7095 145.054 45.7095 145.406C45.7095 146.165 46.3113 146.78 47.0536 146.78C47.5048 146.78 47.9041 146.552 48.1479 146.204C48.4774 146.775 48.6664 147.442 48.6664 148.154C48.6664 150.278 46.9815 152 44.9031 152C42.8247 152 41.1398 150.278 41.1398 148.154C41.1398 146.029 42.8247 144.307 44.9031 144.307C45.3039 144.307 45.69 144.371 46.0522 144.49Z" fill="#000007"/>
</g>
<defs>
<clipPath id="clip0_836_2887">
<rect width="285" height="55.3543" fill="white" transform="translate(6 120)"/>
</clipPath>
</defs>
</svg>
