<svg width="65" height="65" viewBox="0 0 65 65" fill="none" xmlns="http://www.w3.org/2000/svg">
<circle opacity="0.15" cx="32.5" cy="32.5" r="32.5" fill="#33BFFA"/>
<path d="M30.875 19.5H19.5C18.638 19.5 17.8114 19.8424 17.2019 20.4519C16.5924 21.0614 16.25 21.888 16.25 22.75V45.5C16.25 46.362 16.5924 47.1886 17.2019 47.7981C17.8114 48.4076 18.638 48.75 19.5 48.75H42.25C43.112 48.75 43.9386 48.4076 44.5481 47.7981C45.1576 47.1886 45.5 46.362 45.5 45.5V34.125" stroke="#33BFFA" stroke-width="3.25" stroke-linecap="round" stroke-linejoin="round"/>
<path d="M43.0625 17.0625C43.709 16.416 44.5858 16.0529 45.5 16.0529C46.4142 16.0529 47.291 16.416 47.9375 17.0625C48.584 17.709 48.9471 18.5858 48.9471 19.5C48.9471 20.4142 48.584 21.291 47.9375 21.9375L32.5 37.375L26 39L27.625 32.5L43.0625 17.0625Z" stroke="#33BFFA" stroke-width="3.25" stroke-linecap="round" stroke-linejoin="round"/>
</svg>
