<svg width="776" height="867" viewBox="0 0 776 867" fill="none" xmlns="http://www.w3.org/2000/svg">
<g filter="url(#filter0_f_884_925)">
<ellipse cx="425" cy="454.567" rx="205.632" ry="193.104" fill="url(#paint0_linear_884_925)"/>
</g>
<g filter="url(#filter1_f_884_925)">
<ellipse cx="425" cy="337.495" rx="121.824" ry="117.504" fill="url(#paint1_linear_884_925)"/>
</g>
<g filter="url(#filter2_b_884_925)">
<rect x="209" y="207.169" width="394.521" height="394.521" rx="197.26" fill="white" fill-opacity="0.5"/>
</g>
<g filter="url(#filter3_b_884_925)">
<rect x="282.973" y="281.142" width="246.575" height="246.575" rx="123.288" fill="white" fill-opacity="0.5"/>
</g>
<g clip-path="url(#clip0_884_925)">
<path d="M348.786 421.701C353.401 421.701 357.143 417.945 357.143 413.312C357.143 408.68 353.401 404.924 348.786 404.924C344.17 404.924 340.429 408.68 340.429 413.312C340.429 417.945 344.17 421.701 348.786 421.701Z" fill="#E5E5E5" stroke="black" stroke-width="3"/>
<path d="M465.241 421.701C469.857 421.701 473.598 417.945 473.598 413.312C473.598 408.68 469.857 404.924 465.241 404.924C460.626 404.924 456.884 408.68 456.884 413.312C456.884 417.945 460.626 421.701 465.241 421.701Z" fill="#E5E5E5" stroke="black" stroke-width="3"/>
<path d="M328.553 394.259L328.438 394.195C327.486 396.115 325.565 397.361 323.429 397.442C321.293 397.522 319.284 396.426 318.19 394.583C317.096 392.74 317.092 390.444 318.18 388.598L318.12 388.566L338.411 343.184L351.106 347.303L328.553 394.259Z" fill="#E5E5E5"/>
<path d="M328.553 394.259L328.438 394.195C327.486 396.115 325.565 397.361 323.429 397.442C321.293 397.522 319.284 396.426 318.19 394.583C317.096 392.74 317.092 390.444 318.18 388.598L318.12 388.566L338.411 343.184L351.106 347.303L328.553 394.259Z" fill="url(#paint2_linear_884_925)" stroke="black" stroke-width="3"/>
<path d="M483.129 394.259L483.243 394.195C484.194 396.118 486.116 397.365 488.254 397.447C490.391 397.528 492.402 396.431 493.496 394.586C494.59 392.741 494.592 390.444 493.502 388.597L493.562 388.565L473.271 343.178L460.579 347.297L483.129 394.259Z" fill="#E5E5E5"/>
<path d="M483.129 394.259L483.243 394.195C484.194 396.118 486.116 397.365 488.254 397.447C490.391 397.528 492.402 396.431 493.496 394.586C494.59 392.741 494.592 390.444 493.502 388.597L493.562 388.565L473.271 343.178L460.579 347.297L483.129 394.259Z" fill="url(#paint3_linear_884_925)" stroke="black" stroke-width="3"/>
<path fill-rule="evenodd" clip-rule="evenodd" d="M320.564 397.357L320.629 397.242C318.695 396.298 317.434 394.364 317.344 392.208C317.255 390.052 318.351 388.02 320.199 386.916C322.047 385.813 324.349 385.816 326.194 386.925L352.975 399.359L355.096 412.638L320.564 397.357Z" fill="white" stroke="black" stroke-width="3"/>
<path fill-rule="evenodd" clip-rule="evenodd" d="M491.114 397.357L491.05 397.242C493.344 396.097 494.63 393.587 494.224 391.048C493.818 388.509 491.815 386.529 489.279 386.161C486.555 385.774 485.453 386.864 485.453 386.864L460.676 397.357V411.886L491.114 397.357Z" fill="white" stroke="black" stroke-width="3"/>
<path fill-rule="evenodd" clip-rule="evenodd" d="M434.636 183.289L434.877 182.973L434.599 182.964L434.378 182.97L434.636 183.289ZM434.636 183.289L435.041 183.792C434.825 183.967 434.445 183.967 434.24 183.81L434.636 183.289ZM433.694 182.121C434.255 181.665 434.969 181.665 435.54 182.102L435.948 182.414L436.785 214.85H432.265L433.313 182.43L433.694 182.121ZM434.607 176.134C436.509 176.134 438.05 177.682 438.05 179.59C438.05 181.497 436.509 183.044 434.607 183.045C432.705 183.045 431.164 181.498 431.163 179.59C431.163 178.674 431.525 177.795 432.171 177.146C432.817 176.498 433.694 176.134 434.607 176.134Z" stroke="#000007" stroke-width="3"/>
<path fill-rule="evenodd" clip-rule="evenodd" d="M371.951 321.304C371.951 321.304 348.51 319.974 332.291 341.808C331.019 343.532 329.878 345.349 328.877 347.245C328.253 348.295 328.266 349.607 328.909 350.646C330.902 354.166 337.074 362.821 352.989 363.414C362.134 324.154 371.951 321.304 371.951 321.304ZM444.184 321.094C444.184 321.094 468.356 321.514 482.319 342.217C483.588 343.942 484.727 345.759 485.726 347.654C486.349 348.705 486.336 350.017 485.694 351.056C483.701 354.575 478.438 362.566 462.544 363.159C456.523 325.859 444.186 321.094 444.186 321.094H444.184Z" fill="url(#paint4_linear_884_925)" stroke="black" stroke-width="3"/>
<path fill-rule="evenodd" clip-rule="evenodd" d="M467.629 289.367C471.62 289.296 476.901 292.569 476.901 262.593C476.901 232.617 471.62 235.891 467.629 235.82V289.367ZM346.417 289.367C342.427 289.296 336.616 289.367 336.616 262.593C336.616 235.82 342.427 235.891 346.417 235.82" fill="url(#paint5_linear_884_925)"/>
<path d="M346.417 289.367C342.427 289.296 336.616 289.367 336.616 262.593C336.616 235.82 342.427 235.891 346.417 235.82M467.629 289.367C471.62 289.296 476.901 292.569 476.901 262.593C476.901 232.617 471.62 235.891 467.629 235.82V289.367Z" stroke="black" stroke-width="3"/>
<mask id="mask0_884_925" style="mask-type:alpha" maskUnits="userSpaceOnUse" x="342" y="214" width="129" height="245">
<path d="M470.871 274.053C470.871 280.465 469.849 285.781 468.17 290.187C463.047 303.624 451.801 308.609 444.717 310.459C440.006 311.618 429.845 315.011 406.824 315.011C383.802 315.011 372.631 311.384 368.777 310.459C362.073 308.894 351.612 304.604 346.311 292.242C345.529 290.417 344.859 288.416 344.33 286.223C343.478 282.69 342.992 278.657 342.992 274.052V252.132C342.992 248.539 343.299 245.291 343.852 242.354C344.309 239.932 344.935 237.721 345.695 235.703C353.634 214.649 376.326 214.635 376.326 214.635H437.536C437.536 214.635 457.18 214.647 466.308 231.605C469.071 236.738 470.871 243.424 470.871 252.132V274.053ZM462.562 385.741C462.562 385.741 462.702 383.229 465.471 351.331C468.262 319.168 440.975 321.182 440.975 321.182L405.979 320.38L374.25 321.182C374.25 321.182 347.697 318.462 349.757 351.331C351.758 383.287 352.084 385.741 352.084 385.741C352.084 385.741 352.946 395.07 352.969 398.015C353.048 407.675 355.854 440.715 370.921 449.854C390.207 461.55 424.594 461.832 443.436 449.854C458.311 440.397 461.308 407.675 461.388 398.015C461.409 395.07 462.562 385.741 462.562 385.741Z" fill="white"/>
</mask>
<g mask="url(#mask0_884_925)">
<path d="M470.871 274.053C470.871 280.465 469.849 285.781 468.17 290.187C463.047 303.624 451.801 308.609 444.717 310.459C440.006 311.618 429.845 315.011 406.824 315.011C383.802 315.011 372.631 311.384 368.777 310.459C362.073 308.894 351.612 304.604 346.311 292.242C345.529 290.417 344.859 288.416 344.33 286.223C343.478 282.69 342.992 278.657 342.992 274.052V252.132C342.992 248.539 343.299 245.291 343.852 242.354C344.309 239.932 344.935 237.721 345.695 235.703C353.634 214.649 376.326 214.635 376.326 214.635H437.536C437.536 214.635 457.18 214.647 466.308 231.605C469.071 236.738 470.871 243.424 470.871 252.132V274.053ZM462.562 385.741C462.562 385.741 462.702 383.229 465.471 351.331C468.262 319.168 440.975 321.182 440.975 321.182L405.979 320.38L374.25 321.182C374.25 321.182 347.697 318.462 349.757 351.331C351.758 383.287 352.084 385.741 352.084 385.741C352.084 385.741 352.946 395.07 352.969 398.015C353.048 407.675 355.854 440.715 370.921 449.854C390.207 461.55 424.594 461.832 443.436 449.854C458.311 440.397 461.308 407.675 461.388 398.015C461.409 395.07 462.562 385.741 462.562 385.741Z" fill="url(#paint6_radial_884_925)" stroke="black" stroke-width="3"/>
</g>
<path d="M430.268 404.48C431.411 404.48 432.337 403.555 432.337 402.413C432.337 401.272 431.411 400.347 430.268 400.347C429.125 400.347 428.198 401.272 428.198 402.413C428.198 403.555 429.125 404.48 430.268 404.48Z" stroke="#000005"/>
<path d="M422.845 404.48C423.982 404.48 424.904 403.555 424.904 402.413C424.904 401.272 423.982 400.347 422.845 400.347C421.708 400.347 420.786 401.272 420.786 402.413C420.786 403.555 421.708 404.48 422.845 404.48Z" fill="#000007"/>
<path d="M368.054 418.699C378.097 420.249 388.214 421.274 398.363 421.772M414.212 422.158C424.975 422.191 435.722 421.31 446.337 419.526L414.212 422.158Z" stroke="#000007" stroke-width="3" stroke-linecap="round" stroke-linejoin="round"/>
<path fill-rule="evenodd" clip-rule="evenodd" d="M376.157 441.784C365.577 433.869 363.974 386.954 362.979 366.067C361.549 336.071 382.725 338.554 382.725 338.554H431.358C431.358 338.554 453.046 336.716 451.105 366.067C449.104 396.35 448.086 432.315 436.963 441.784C426.353 450.815 386.773 449.726 376.157 441.784Z" stroke="#000007" stroke-width="3"/>
<path d="M360.1 323.544C347.362 327.431 338.764 342.079 336.744 347.57C333.929 346.769 331.887 342.35 331.887 342.35M481.957 342.35C480.947 345.83 478.714 348.138 478.473 347.57C473.49 335.817 462.785 326.96 455.5 322.977L481.957 342.35Z" stroke="#000005" stroke-width="3" stroke-linecap="round" stroke-linejoin="round"/>
<path fill-rule="evenodd" clip-rule="evenodd" d="M383.731 225.871C383.731 225.871 355.415 225.888 355.415 259.247V265.872C355.415 289.763 372.118 297.048 377.071 298.482C382.411 300.031 386.766 302.329 407.259 302.329C418.128 302.329 459.294 303.676 459.294 265.872V259.247C459.294 225.888 430.977 225.871 430.977 225.871H383.731Z" fill="url(#paint7_radial_884_925)" stroke="black" stroke-width="3"/>
<mask id="mask1_884_925" style="mask-type:alpha" maskUnits="userSpaceOnUse" x="386" y="274" width="41" height="14">
<path d="M386.805 274.26H426.748C426.748 274.26 426.813 287.415 406.645 287.415C387.513 287.415 386.805 274.26 386.805 274.26Z" fill="white"/>
</mask>
<g mask="url(#mask1_884_925)">
<path d="M386.805 274.26H426.748C426.748 274.26 426.813 287.415 406.645 287.415C387.513 287.415 386.805 274.26 386.805 274.26Z" fill="#000007"/>
<g filter="url(#filter4_i_884_925)">
<path d="M386.805 274.26H426.748C426.748 274.26 426.813 287.415 406.645 287.415C387.513 287.415 386.805 274.26 386.805 274.26Z" fill="black"/>
</g>
</g>
<path fill-rule="evenodd" clip-rule="evenodd" d="M406.386 318.614C419.109 318.614 426.971 318.444 426.971 323.665C426.971 329.305 419.109 328.716 406.386 328.716C393.663 328.716 385.799 328.675 385.799 323.665C385.8 318.688 393.664 318.614 406.386 318.614Z" fill="#E5E5E5" stroke="black" stroke-width="3"/>
<mask id="mask2_884_925" style="mask-type:alpha" maskUnits="userSpaceOnUse" x="377" y="356" width="60" height="38">
<path d="M435.407 388.986C436.625 379.062 436.885 369.55 435.51 360.571C435.316 358.966 433.962 357.757 432.351 357.752C415.378 356.483 398.34 356.327 381.347 357.285C379.734 357.287 378.378 358.5 378.191 360.108C376.78 368.552 376.686 380.759 378.315 389.011C378.554 390.467 379.725 391.589 381.186 391.761C398.26 393.489 415.464 393.482 432.536 391.738C434.04 391.662 435.262 390.491 435.407 388.986Z" fill="white"/>
</mask>
<g mask="url(#mask2_884_925)">
<path fill-rule="evenodd" clip-rule="evenodd" d="M436.472 389.104C436.269 391.132 434.62 392.709 432.644 392.807C415.5 394.558 398.224 394.566 381.061 392.828C379.126 392.6 377.575 391.114 377.264 389.219C375.66 381.097 375.651 368.804 377.126 359.983C377.377 357.834 379.19 356.213 381.287 356.213C398.315 355.252 415.387 355.408 432.395 356.678C434.529 356.705 436.316 358.312 436.569 360.408C437.881 368.971 437.792 378.347 436.472 389.104Z" stroke="#E5E5E5" stroke-width="3"/>
<path opacity="0.45" fill-rule="evenodd" clip-rule="evenodd" d="M375.839 369.209C375.437 367.208 377.31 366.207 381.461 366.207C387.686 366.207 385.297 372.977 399.493 372.977C413.69 372.977 409.028 378.818 417.947 378.818C426.866 378.818 423.284 364.918 437.193 364.918C438.42 364.918 439.035 368.01 439.037 374.194L437.193 392.771L408.103 396.254L378.513 393.616L375.839 369.209Z" fill="url(#paint8_linear_884_925)"/>
<path opacity="0.7" fill-rule="evenodd" clip-rule="evenodd" d="M374.5 378.04C375.442 375.42 378.306 374.109 383.092 374.109C390.27 374.109 391.248 379.735 398.131 379.735C405.015 379.735 406.511 370.08 414.448 370.08C422.386 370.08 421.676 375.978 426.988 375.978C432.301 375.978 433.081 372.05 436.621 372.05C438.982 372.05 439.596 372.736 438.465 374.109L436.621 392.686L407.531 396.169L377.941 393.532L374.5 378.04Z" fill="url(#paint9_linear_884_925)"/>
<path fill-rule="evenodd" clip-rule="evenodd" d="M375.227 375.384C379.703 383.163 383.642 387.312 387.042 387.833C392.142 388.614 394.125 383.55 399.263 383.55C404.402 383.55 406.135 387.833 412.452 387.833C418.769 387.833 421.228 378.818 429.303 378.818C434.686 378.818 437.664 380.395 438.237 383.55L436.901 393.305L407.811 396.008L378.221 393.961L375.227 375.384Z" fill="url(#paint10_linear_884_925)"/>
</g>
<path d="M384.123 260.492C388.313 260.492 391.71 257.082 391.71 252.875C391.71 248.669 388.313 245.259 384.123 245.259C379.933 245.259 376.536 248.669 376.536 252.875C376.536 257.082 379.933 260.492 384.123 260.492Z" fill="black" stroke="white" stroke-width="3"/>
<path d="M384.123 262.641C389.497 262.641 393.853 258.268 393.853 252.875C393.853 247.482 389.497 243.11 384.123 243.11C378.749 243.11 374.393 247.482 374.393 252.875C374.393 258.268 378.749 262.641 384.123 262.641Z" stroke="#CDCDCD" stroke-width="3"/>
<path d="M387.297 250.062C388.539 250.062 389.547 249.051 389.547 247.804C389.547 246.557 388.539 245.546 387.297 245.546C386.054 245.546 385.047 246.557 385.047 247.804C385.047 249.051 386.054 250.062 387.297 250.062Z" fill="white"/>
<path d="M427.194 260.492C431.385 260.492 434.782 257.082 434.782 252.875C434.782 248.669 431.385 245.259 427.194 245.259C423.004 245.259 419.607 248.669 419.607 252.875C419.607 257.082 423.004 260.492 427.194 260.492Z" fill="black" stroke="white" stroke-width="3"/>
<path d="M427.194 262.641C432.568 262.641 436.924 258.268 436.924 252.875C436.924 247.482 432.568 243.11 427.194 243.11C421.821 243.11 417.464 247.482 417.464 252.875C417.464 258.268 421.821 262.641 427.194 262.641Z" stroke="#CDCDCD" stroke-width="3"/>
<path d="M430.368 250.062C431.611 250.062 432.618 249.051 432.618 247.804C432.618 246.557 431.611 245.546 430.368 245.546C429.126 245.546 428.118 246.557 428.118 247.804C428.118 249.051 429.126 250.062 430.368 250.062Z" fill="white"/>
<g style="mix-blend-mode:multiply" opacity="0.1">
<path d="M406 483C442.214 483 471.571 479.389 471.571 474.934C471.571 470.48 442.214 466.869 406 466.869C369.786 466.869 340.429 470.48 340.429 474.934C340.429 479.389 369.786 483 406 483Z" fill="black"/>
</g>
<path d="M346.787 210.984C352.773 204.545 364.594 191.829 383.758 188.68C391.551 187.785 400.654 188.963 408.587 190.893C416.356 192.782 422.907 195.369 425.961 197.36L429.277 214.856C427.819 215.962 425.563 217.145 422.809 218.344C419.894 219.613 416.464 220.883 412.921 222.086C405.836 224.492 398.332 226.619 393.659 227.925C391.817 228.44 389.932 228.765 388.01 228.888C374.387 229.757 357.151 230.439 350.361 229.945L344.674 213.214C345.274 212.612 345.977 211.855 346.787 210.984Z" fill="#232323" stroke="black" stroke-width="1.18728"/>
<mask id="mask3_884_925" style="mask-type:alpha" maskUnits="userSpaceOnUse" x="343" y="187" width="87" height="44">
<path d="M346.787 210.983C352.773 204.545 364.594 191.828 383.758 188.68C391.551 187.784 400.654 188.962 408.587 190.892C416.356 192.782 422.907 195.368 425.961 197.36L429.277 214.856C427.819 215.961 425.563 217.144 422.809 218.343C419.894 219.613 416.464 220.883 412.921 222.086C405.836 224.491 398.332 226.618 393.659 227.924C391.817 228.44 389.932 228.765 388.01 228.887C374.387 229.756 357.151 230.438 350.361 229.944L344.674 213.214C345.274 212.611 345.977 211.855 346.787 210.983Z" fill="#363636" stroke="black" stroke-width="1.18728"/>
</mask>
<g mask="url(#mask3_884_925)">
<path fill-rule="evenodd" clip-rule="evenodd" d="M421.987 217.002C424.9 215.734 428.653 213.571 430 212.484L430.479 216.278C428.816 217.621 426.242 218.964 423.284 220.252C420.297 221.553 416.807 222.844 413.236 224.056C406.093 226.482 398.542 228.621 393.867 229.928C391.888 230.482 389.859 230.832 387.787 230.964C373.931 231.848 356.095 232.556 349.418 231.986L349.575 228.5C355.979 229.046 373.569 228.361 387.49 227.473C389.347 227.355 391.169 227.041 392.954 226.542C397.625 225.236 405.108 223.115 412.168 220.718C415.699 219.519 419.104 218.258 421.987 217.002Z" fill="white"/>
<ellipse rx="0.378137" ry="0.30772" transform="matrix(0.987529 -0.157435 0.194378 0.980927 365.799 202.629)" stroke="white" stroke-width="0.34348"/>
<path d="M369.502 203.789L369.488 203.794L369.474 203.799C368.255 204.284 366.812 204.798 365.558 204.901C364.936 204.952 364.388 204.899 363.945 204.712C363.512 204.529 363.155 204.207 362.925 203.672C362.686 203.114 362.67 202.665 362.766 202.305C362.862 201.944 363.081 201.635 363.378 201.369C363.987 200.824 364.879 200.503 365.467 200.373L365.48 200.37L365.492 200.367C366.922 199.96 370.761 199.514 374.394 201.079C376.917 202.167 379.005 204.109 380.351 205.689L379.552 205.165L379.307 205.481L379.552 205.165C378.174 204.263 376.11 203.262 374.291 203.045C373.534 202.955 372.569 203.069 371.699 203.235C370.821 203.401 369.997 203.629 369.502 203.789Z" stroke="white" stroke-width="0.775607"/>
<path d="M365.637 201.079L365.649 201.076L365.66 201.073L365.688 201.065C366.963 200.702 370.584 200.273 374 201.745C374.506 201.963 374.994 202.218 375.463 202.5C375.125 202.419 374.787 202.356 374.454 202.317C373.555 202.21 372.478 202.346 371.585 202.516C370.665 202.691 369.804 202.928 369.275 203.1L369.244 203.109L369.232 203.113L369.22 203.118L369.19 203.13C369.19 203.13 369.19 203.13 369.19 203.13C367.968 203.616 366.642 204.078 365.541 204.169C365.005 204.213 364.611 204.16 364.334 204.043C364.084 203.937 363.855 203.751 363.689 203.365C363.497 202.917 363.508 202.618 363.559 202.428C363.61 202.235 363.729 202.053 363.933 201.87C364.381 201.47 365.099 201.198 365.609 201.085L365.637 201.079ZM381.807 207.538L382.332 207.073C382.021 206.567 381.512 205.86 380.837 205.082C379.447 203.478 377.328 201.538 374.753 200.429C370.941 198.786 366.922 199.24 365.346 199.685C364.691 199.832 363.646 200.196 362.889 200.873C362.503 201.219 362.182 201.655 362.04 202.188C361.897 202.723 361.942 203.323 362.227 203.986C362.52 204.668 362.996 205.112 363.591 205.364C364.179 205.612 364.861 205.664 365.559 205.607C366.942 205.493 368.483 204.938 369.701 204.454C370.167 204.303 370.95 204.088 371.784 203.929C372.634 203.768 373.5 203.673 374.135 203.749C375.792 203.946 377.75 204.882 379.09 205.759L381.807 207.538Z" fill="white" stroke="white" stroke-width="0.68696"/>
<path d="M365.703 201.413L365.712 201.411L365.72 201.408L365.773 201.394L365.773 201.394L365.779 201.393C366.947 201.06 370.299 200.654 373.529 201.939C372.84 201.961 372.136 202.065 371.533 202.179C370.596 202.357 369.72 202.598 369.174 202.775L369.149 202.782L369.131 202.787L369.114 202.794L369.057 202.817C367.834 203.303 366.563 203.741 365.534 203.826C365.038 203.867 364.716 203.814 364.515 203.729C364.352 203.66 364.182 203.536 364.047 203.222C363.876 202.825 363.9 202.595 363.93 202.485C363.96 202.372 364.032 202.249 364.192 202.106C364.564 201.774 365.202 201.524 365.675 201.419L365.703 201.413ZM377.482 203.941L377.902 203.38C377.563 203.097 377.206 202.819 376.832 202.555C376.066 202.011 375.23 201.519 374.338 201.135C370.744 199.586 366.945 200.028 365.54 200.428L365.614 200.747L365.54 200.428L365.523 200.433L365.506 200.437L365.558 200.761L365.506 200.437C364.934 200.563 364.064 200.877 363.473 201.406C363.185 201.663 362.971 201.965 362.877 202.319C362.783 202.672 362.798 203.113 363.033 203.661C363.258 204.185 363.6 204.486 364.001 204.655C364.414 204.83 364.934 204.883 365.541 204.833C366.769 204.732 368.193 204.227 369.413 203.741L369.431 203.734L369.45 203.728C369.95 203.566 370.78 203.337 371.665 203.169C372.538 203.003 373.523 202.885 374.307 202.978C374.936 203.053 375.597 203.22 376.252 203.447C376.669 203.591 377.082 203.759 377.482 203.941ZM382.576 207.321L382.815 207.127L382.669 206.89C382.348 206.367 381.828 205.647 381.144 204.858C379.738 203.236 377.58 201.255 374.937 200.116C371.033 198.434 366.923 198.889 365.268 199.354C364.575 199.51 363.458 199.897 362.631 200.637C362.2 201.022 361.833 201.517 361.669 202.131C361.505 202.746 361.563 203.416 361.87 204.13C362.194 204.883 362.729 205.39 363.41 205.678C364.074 205.958 364.828 206.01 365.566 205.95C367.016 205.83 368.604 205.256 369.82 204.773C370.272 204.628 371.031 204.419 371.837 204.266C372.676 204.107 373.489 204.022 374.059 204.09C375.629 204.277 377.531 205.178 378.852 206.043L381.569 207.822L381.784 207.963L382.001 207.787L382.576 207.321ZM380.277 205.53C380.385 205.654 380.488 205.777 380.586 205.896L379.524 205.201L379.307 205.48L379.524 205.201C378.149 204.3 376.091 203.303 374.282 203.088C373.532 202.998 372.573 203.111 371.705 203.276C370.828 203.443 370.007 203.669 369.514 203.829L369.501 203.833L369.489 203.838C368.27 204.323 366.82 204.839 365.559 204.943C364.932 204.995 364.376 204.942 363.924 204.751C363.481 204.564 363.117 204.235 362.883 203.69C362.641 203.126 362.623 202.668 362.722 202.297C362.821 201.926 363.046 201.609 363.349 201.338C363.967 200.786 364.868 200.462 365.461 200.331L365.472 200.328L365.483 200.325C366.922 199.916 370.772 199.469 374.416 201.039C376.87 202.097 378.918 203.962 380.277 205.53Z" fill="black" stroke="white" stroke-width="0.68696"/>
<ellipse rx="0.378137" ry="0.30772" transform="matrix(-0.987529 0.157435 -0.194378 -0.980927 407.99 196.606)" stroke="white" stroke-width="0.34348"/>
<path d="M404.288 195.446L404.302 195.441L404.315 195.436C405.535 194.951 406.978 194.437 408.231 194.334C408.854 194.283 409.402 194.336 409.844 194.523C410.278 194.706 410.634 195.028 410.864 195.563C411.104 196.121 411.12 196.57 411.024 196.93C410.927 197.291 410.708 197.6 410.411 197.866C409.803 198.411 408.911 198.732 408.323 198.862L408.31 198.865L408.297 198.868C406.867 199.275 403.029 199.721 399.396 198.156C396.873 197.068 394.784 195.126 393.439 193.546L394.238 194.07L394.483 193.754L394.238 194.07C395.615 194.972 397.68 195.973 399.498 196.19C400.256 196.28 401.221 196.166 402.091 196C402.969 195.834 403.792 195.606 404.288 195.446Z" stroke="white" stroke-width="0.775607"/>
<path d="M408.152 198.156L408.141 198.159L408.13 198.162L408.102 198.17C406.826 198.533 403.206 198.962 399.789 197.489C399.284 197.272 398.795 197.016 398.327 196.735C398.664 196.816 399.002 196.879 399.336 196.918C400.234 197.025 401.312 196.889 402.204 196.719C403.124 196.544 403.986 196.307 404.515 196.135L404.546 196.125L404.558 196.121L404.57 196.117L404.6 196.105C404.6 196.105 404.6 196.105 404.6 196.105C405.822 195.619 407.148 195.157 408.248 195.066C408.784 195.022 409.178 195.075 409.456 195.192C409.705 195.297 409.935 195.484 410.1 195.869C410.293 196.318 410.281 196.617 410.231 196.807C410.179 196.999 410.06 197.182 409.856 197.364C409.409 197.765 408.69 198.037 408.181 198.15L408.152 198.156ZM391.983 191.697L391.457 192.162C391.769 192.668 392.278 193.375 392.952 194.153C394.342 195.757 396.461 197.696 399.037 198.806C402.849 200.449 406.867 199.995 408.443 199.55C409.099 199.403 410.144 199.039 410.9 198.362C411.287 198.016 411.607 197.58 411.75 197.046C411.892 196.512 411.847 195.912 411.562 195.249C411.269 194.566 410.794 194.123 410.198 193.871C409.611 193.623 408.929 193.571 408.231 193.628C406.848 193.742 405.306 194.297 404.089 194.781C403.623 194.931 402.839 195.147 402.005 195.306C401.156 195.467 400.29 195.562 399.654 195.486C397.998 195.289 396.04 194.353 394.699 193.475L391.983 191.697Z" fill="white" stroke="white" stroke-width="0.68696"/>
<path d="M408.086 197.822L408.078 197.824L408.069 197.826L408.016 197.84L408.016 197.84L408.011 197.842C406.842 198.174 403.49 198.581 400.261 197.296C400.949 197.274 401.654 197.17 402.257 197.055C403.194 196.878 404.07 196.636 404.615 196.46L404.641 196.453L404.659 196.447L404.676 196.44L404.732 196.418C405.955 195.932 407.227 195.493 408.256 195.409C408.752 195.368 409.074 195.421 409.274 195.505C409.438 195.575 409.608 195.699 409.743 196.013C409.913 196.41 409.889 196.639 409.86 196.749C409.83 196.862 409.757 196.985 409.597 197.128C409.225 197.461 408.588 197.711 408.115 197.816L408.086 197.822ZM396.308 195.294L395.887 195.855C396.227 196.138 396.584 196.415 396.957 196.68C397.723 197.223 398.559 197.715 399.452 198.1C403.045 199.648 406.844 199.206 408.249 198.807L408.175 198.488L408.249 198.807L408.266 198.802L408.283 198.798L408.232 198.474L408.283 198.798C408.856 198.671 409.725 198.358 410.316 197.829C410.604 197.571 410.818 197.27 410.913 196.916C411.007 196.562 410.991 196.121 410.756 195.573C410.531 195.05 410.19 194.749 409.788 194.579C409.375 194.405 408.855 194.352 408.248 194.402C407.021 194.503 405.597 195.008 404.376 195.493L404.358 195.501L404.34 195.506C403.839 195.669 403.01 195.898 402.124 196.066C401.251 196.232 400.266 196.35 399.483 196.257C398.853 196.182 398.193 196.014 397.538 195.788C397.12 195.643 396.707 195.476 396.308 195.294ZM391.214 191.914L390.975 192.108L391.121 192.344C391.442 192.867 391.962 193.588 392.645 194.377C394.052 195.999 396.21 197.98 398.853 199.119C402.756 200.801 406.866 200.345 408.521 199.881C409.214 199.724 410.332 199.337 411.159 198.597C411.589 198.212 411.957 197.717 412.12 197.104C412.284 196.489 412.226 195.819 411.919 195.105C411.596 194.352 411.061 193.845 410.38 193.557C409.715 193.276 408.961 193.224 408.223 193.285C406.774 193.404 405.185 193.979 403.97 194.462C403.517 194.607 402.759 194.816 401.952 194.969C401.114 195.128 400.3 195.212 399.73 195.144C398.161 194.958 396.259 194.057 394.937 193.192L392.221 191.413L392.005 191.272L391.788 191.448L391.214 191.914ZM393.513 193.704C393.405 193.58 393.302 193.458 393.203 193.339L394.265 194.034L394.482 193.754L394.265 194.034C395.641 194.934 397.698 195.932 399.507 196.147C400.258 196.236 401.216 196.123 402.085 195.958C402.961 195.792 403.782 195.565 404.276 195.405L404.288 195.401L404.3 195.397C405.52 194.911 406.969 194.395 408.231 194.292C408.858 194.24 409.414 194.293 409.865 194.483C410.309 194.671 410.672 195 410.906 195.544C411.148 196.108 411.166 196.566 411.067 196.937C410.968 197.309 410.743 197.626 410.44 197.897C409.823 198.449 408.921 198.773 408.329 198.904L408.318 198.907L408.306 198.91C406.868 199.319 403.018 199.765 399.374 198.195C396.92 197.138 394.872 195.273 393.513 193.704Z" fill="black" stroke="white" stroke-width="0.68696"/>
<path d="M357.447 229.928C356.185 233.089 352.107 234.993 348.318 234.147C344.53 233.301 342.514 230.038 343.776 226.877C345.038 223.716 349.116 221.812 352.905 222.658C356.694 223.504 358.709 226.767 357.447 229.928Z" stroke="white" stroke-width="0.949821"/>
<path d="M354.717 229.319C353.962 231.21 351.517 232.357 349.236 231.848C346.955 231.339 345.75 229.377 346.505 227.486C347.261 225.595 349.706 224.448 351.987 224.957C354.268 225.466 355.472 227.428 354.717 229.319Z" stroke="white" stroke-width="0.949821"/>
<path d="M351.909 228.692C351.675 229.277 350.91 229.646 350.18 229.483C349.451 229.32 349.081 228.698 349.315 228.113C349.548 227.528 350.313 227.159 351.043 227.322C351.773 227.485 352.143 228.107 351.909 228.692Z" stroke="white" stroke-width="0.949821"/>
<path d="M372.874 229.682C371.612 232.843 367.534 234.746 363.745 233.9C359.956 233.055 357.941 229.791 359.203 226.63C360.465 223.469 364.543 221.566 368.332 222.412C372.121 223.258 374.136 226.521 372.874 229.682Z" stroke="white" stroke-width="0.949821"/>
<path d="M370.108 229.065C369.359 230.94 366.936 232.076 364.675 231.572C362.414 231.067 361.221 229.123 361.969 227.248C362.718 225.374 365.141 224.237 367.402 224.742C369.663 225.247 370.856 227.191 370.108 229.065Z" stroke="white" stroke-width="0.949821"/>
<path d="M367.399 228.46C367.153 229.075 366.35 229.461 365.585 229.29C364.82 229.12 364.432 228.467 364.677 227.853C364.923 227.238 365.726 226.852 366.491 227.023C367.256 227.193 367.644 227.846 367.399 228.46Z" stroke="white" stroke-width="0.949821"/>
<path d="M388.3 229.435C387.038 232.596 382.96 234.499 379.171 233.653C375.383 232.807 373.367 229.544 374.629 226.383C375.891 223.222 379.97 221.319 383.758 222.165C387.547 223.01 389.562 226.274 388.3 229.435Z" stroke="white" stroke-width="0.949821"/>
<path d="M385.689 228.851C384.912 230.798 382.396 231.977 380.05 231.453C377.704 230.93 376.465 228.912 377.242 226.966C378.019 225.019 380.534 223.84 382.881 224.364C385.227 224.887 386.466 226.905 385.689 228.851Z" stroke="white" stroke-width="0.949821"/>
<path d="M382.809 228.209C382.566 228.816 381.774 229.197 381.019 229.028C380.263 228.86 379.88 228.216 380.122 227.609C380.365 227.003 381.157 226.622 381.912 226.79C382.668 226.959 383.051 227.603 382.809 228.209Z" stroke="white" stroke-width="0.949821"/>
<path d="M408.158 224.186C408.756 227.332 406.077 230.358 402.033 230.855C397.989 231.352 394.309 229.108 393.711 225.962C393.113 222.817 395.792 219.791 399.836 219.293C403.88 218.796 407.56 221.04 408.158 224.186Z" stroke="white" stroke-width="0.949821"/>
<path d="M405.16 224.555C405.504 226.364 403.962 228.142 401.574 228.436C399.185 228.73 397.053 227.404 396.709 225.594C396.365 223.784 397.907 222.006 400.296 221.712C402.684 221.419 404.816 222.745 405.16 224.555Z" stroke="white" stroke-width="0.949821"/>
<path d="M402.525 224.879C402.646 225.514 402.102 226.195 401.169 226.309C400.236 226.424 399.464 225.905 399.344 225.27C399.223 224.635 399.766 223.954 400.7 223.839C401.633 223.724 402.404 224.243 402.525 224.879Z" stroke="white" stroke-width="0.949821"/>
<path d="M422.339 218.939C422.937 222.085 420.258 225.111 416.214 225.608C412.17 226.105 408.49 223.861 407.892 220.715C407.294 217.57 409.973 214.544 414.017 214.046C418.061 213.549 421.741 215.793 422.339 218.939Z" stroke="white" stroke-width="0.949821"/>
<path d="M419.418 219.298C419.768 221.143 418.197 222.952 415.766 223.251C413.335 223.55 411.163 222.201 410.812 220.357C410.462 218.513 412.033 216.703 414.464 216.404C416.896 216.105 419.067 217.454 419.418 219.298Z" stroke="white" stroke-width="0.949821"/>
<path d="M416.683 219.635C416.802 220.26 416.267 220.931 415.346 221.045C414.425 221.158 413.666 220.646 413.547 220.02C413.428 219.395 413.963 218.724 414.884 218.611C415.805 218.497 416.564 219.01 416.683 219.635Z" stroke="white" stroke-width="0.949821"/>
<path d="M436.519 213.693C437.117 216.839 434.439 219.865 430.395 220.362C426.35 220.859 422.67 218.615 422.073 215.47C421.475 212.324 424.153 209.298 428.197 208.801C432.241 208.303 435.921 210.547 436.519 213.693Z" stroke="white" stroke-width="0.949821"/>
<path d="M433.486 214.066C433.827 215.86 432.298 217.622 429.93 217.914C427.561 218.205 425.448 216.89 425.107 215.096C424.766 213.303 426.295 211.54 428.663 211.249C431.032 210.958 433.145 212.273 433.486 214.066Z" stroke="white" stroke-width="0.949821"/>
<path d="M430.8 214.396C430.913 214.992 430.403 215.636 429.518 215.745C428.633 215.854 427.907 215.362 427.793 214.765C427.68 214.169 428.19 213.525 429.075 213.416C429.96 213.307 430.686 213.8 430.8 214.396Z" stroke="white" stroke-width="0.949821"/>
<path fill-rule="evenodd" clip-rule="evenodd" d="M421.987 218.46C424.9 217.192 428.653 215.03 430 213.942L430.479 217.22C428.816 218.563 426.242 219.906 423.284 221.195C420.297 222.495 416.807 223.786 413.236 224.999C406.093 227.424 398.542 229.564 393.867 230.871C391.888 231.424 389.859 231.774 387.787 231.906C373.931 232.79 356.095 233.498 349.418 232.928L349.575 229.958C355.979 230.504 373.569 229.819 387.49 228.931C389.347 228.813 391.169 228.499 392.954 228C397.625 226.694 405.108 224.573 412.168 222.176C415.699 220.977 419.104 219.716 421.987 218.46Z" fill="black"/>
</g>
</g>
<defs>
<filter id="filter0_f_884_925" x="0.367981" y="42.4631" width="849.264" height="824.208" filterUnits="userSpaceOnUse" color-interpolation-filters="sRGB">
<feFlood flood-opacity="0" result="BackgroundImageFix"/>
<feBlend mode="normal" in="SourceGraphic" in2="BackgroundImageFix" result="shape"/>
<feGaussianBlur stdDeviation="109.5" result="effect1_foregroundBlur_884_925"/>
</filter>
<filter id="filter1_f_884_925" x="84.176" y="0.990967" width="681.648" height="673.008" filterUnits="userSpaceOnUse" color-interpolation-filters="sRGB">
<feFlood flood-opacity="0" result="BackgroundImageFix"/>
<feBlend mode="normal" in="SourceGraphic" in2="BackgroundImageFix" result="shape"/>
<feGaussianBlur stdDeviation="109.5" result="effect1_foregroundBlur_884_925"/>
</filter>
<filter id="filter2_b_884_925" x="109" y="107.169" width="594.521" height="594.521" filterUnits="userSpaceOnUse" color-interpolation-filters="sRGB">
<feFlood flood-opacity="0" result="BackgroundImageFix"/>
<feGaussianBlur in="BackgroundImageFix" stdDeviation="50"/>
<feComposite in2="SourceAlpha" operator="in" result="effect1_backgroundBlur_884_925"/>
<feBlend mode="normal" in="SourceGraphic" in2="effect1_backgroundBlur_884_925" result="shape"/>
</filter>
<filter id="filter3_b_884_925" x="182.973" y="181.142" width="446.575" height="446.575" filterUnits="userSpaceOnUse" color-interpolation-filters="sRGB">
<feFlood flood-opacity="0" result="BackgroundImageFix"/>
<feGaussianBlur in="BackgroundImageFix" stdDeviation="50"/>
<feComposite in2="SourceAlpha" operator="in" result="effect1_backgroundBlur_884_925"/>
<feBlend mode="normal" in="SourceGraphic" in2="effect1_backgroundBlur_884_925" result="shape"/>
</filter>
<filter id="filter4_i_884_925" x="386.805" y="270.26" width="39.9426" height="17.1555" filterUnits="userSpaceOnUse" color-interpolation-filters="sRGB">
<feFlood flood-opacity="0" result="BackgroundImageFix"/>
<feBlend mode="normal" in="SourceGraphic" in2="BackgroundImageFix" result="shape"/>
<feColorMatrix in="SourceAlpha" type="matrix" values="0 0 0 0 0 0 0 0 0 0 0 0 0 0 0 0 0 0 127 0" result="hardAlpha"/>
<feOffset dy="-4"/>
<feGaussianBlur stdDeviation="2"/>
<feComposite in2="hardAlpha" operator="arithmetic" k2="-1" k3="1"/>
<feColorMatrix type="matrix" values="0 0 0 0 0.290196 0 0 0 0 0.290196 0 0 0 0 0.290196 0 0 0 1 0"/>
<feBlend mode="normal" in2="shape" result="effect1_innerShadow_884_925"/>
</filter>
<linearGradient id="paint0_linear_884_925" x1="425" y1="261.463" x2="425" y2="647.671" gradientUnits="userSpaceOnUse">
<stop stop-color="#0085FF" stop-opacity="0.58"/>
<stop offset="1" stop-color="#AD00FF" stop-opacity="0.11"/>
</linearGradient>
<linearGradient id="paint1_linear_884_925" x1="425" y1="219.991" x2="425" y2="454.999" gradientUnits="userSpaceOnUse">
<stop stop-color="#00C2FF" stop-opacity="0.44"/>
<stop offset="1" stop-color="#5200FF" stop-opacity="0.33"/>
</linearGradient>
<linearGradient id="paint2_linear_884_925" x1="330.017" y1="380.918" x2="336.676" y2="375.876" gradientUnits="userSpaceOnUse">
<stop stop-color="#F2F2F2"/>
<stop offset="1" stop-color="#D9D9D9"/>
</linearGradient>
<linearGradient id="paint3_linear_884_925" x1="483.995" y1="382.978" x2="474.634" y2="377.273" gradientUnits="userSpaceOnUse">
<stop stop-color="#F2F2F2"/>
<stop offset="1" stop-color="#D9D9D9"/>
</linearGradient>
<linearGradient id="paint4_linear_884_925" x1="390.754" y1="363.075" x2="390.969" y2="312.935" gradientUnits="userSpaceOnUse">
<stop stop-color="#FF656E"/>
<stop offset="1" stop-color="#C5C9FF"/>
</linearGradient>
<linearGradient id="paint5_linear_884_925" x1="392.044" y1="289.01" x2="392.434" y2="225.396" gradientUnits="userSpaceOnUse">
<stop stop-color="#FF656E"/>
<stop offset="1" stop-color="#C5C9FF"/>
</linearGradient>
<radialGradient id="paint6_radial_884_925" cx="0" cy="0" r="1" gradientUnits="userSpaceOnUse" gradientTransform="translate(282.106 252.669) rotate(90) scale(74.5874 160.339)">
<stop stop-color="white"/>
<stop offset="0.765986" stop-color="#FAFCFF"/>
<stop offset="1" stop-color="#F2F2F2"/>
</radialGradient>
<radialGradient id="paint7_radial_884_925" cx="0" cy="0" r="1" gradientUnits="userSpaceOnUse" gradientTransform="translate(270.74 112.606) rotate(180) scale(57.0251 45.2178)">
<stop stop-color="white"/>
<stop offset="0.765986" stop-color="#FAFCFF"/>
<stop offset="1" stop-color="#E0E0E0"/>
</radialGradient>
<linearGradient id="paint8_linear_884_925" x1="392.102" y1="396.254" x2="392.102" y2="355.478" gradientUnits="userSpaceOnUse">
<stop stop-color="#FF656E"/>
<stop offset="1" stop-color="#C5C9FF"/>
</linearGradient>
<linearGradient id="paint9_linear_884_925" x1="391.142" y1="396.169" x2="391.142" y2="362.22" gradientUnits="userSpaceOnUse">
<stop stop-color="#FF656E"/>
<stop offset="1" stop-color="#C5C9FF"/>
</linearGradient>
<linearGradient id="paint10_linear_884_925" x1="391.481" y1="396.008" x2="391.481" y2="369.17" gradientUnits="userSpaceOnUse">
<stop stop-color="#FF656E"/>
<stop offset="1" stop-color="#C5C9FF"/>
</linearGradient>
<clipPath id="clip0_884_925">
<rect width="180" height="308" fill="white" transform="translate(316 175)"/>
</clipPath>
</defs>
</svg>
