<svg width="171" height="21" viewBox="0 0 171 21" fill="none" xmlns="http://www.w3.org/2000/svg">
<path d="M8.104 20.4445C5.56 20.4445 3.584 19.7405 2.176 18.3325C0.768 16.9245 0.0640001 14.9325 0.0640001 12.3565V1.82055H3.736V12.0685C3.736 15.4765 5.2 17.1805 8.128 17.1805C11.072 17.1805 12.544 15.4765 12.544 12.0685V1.82055H16.216V12.3565C16.216 14.9325 15.512 16.9245 14.104 18.3325C12.696 19.7405 10.696 20.4445 8.104 20.4445ZM19.3294 20.0605V17.6845L25.5694 10.6045H19.5934V7.84455H29.9374V10.2205L23.6734 17.3005H30.1054V20.0605H19.3294ZM40.1853 20.4445C38.3933 20.4445 37.0973 19.7885 36.2973 18.4765L36.2493 20.0605H33.0573V0.620545H36.3933V9.28455C37.2733 8.06855 38.5933 7.46055 40.3533 7.46055C41.9853 7.46055 43.3373 8.06055 44.4093 9.26055C45.4813 10.4445 46.0173 11.9965 46.0173 13.9165C46.0493 15.6925 45.4973 17.2285 44.3613 18.5245C43.2253 19.8205 41.8333 20.4605 40.1853 20.4445ZM37.0893 16.4845C37.6973 17.1405 38.4813 17.4685 39.4413 17.4685C40.4013 17.4685 41.1773 17.1405 41.7693 16.4845C42.3773 15.8285 42.6813 14.9885 42.6813 13.9645C42.6813 12.9245 42.3773 12.0765 41.7693 11.4205C41.1613 10.7645 40.3853 10.4365 39.4413 10.4365C38.4973 10.4365 37.7213 10.7645 37.1133 11.4205C36.5053 12.0765 36.2013 12.9245 36.2013 13.9645C36.2013 14.9885 36.4973 15.8285 37.0893 16.4845ZM55.4028 20.4445C53.2428 20.4445 51.5148 19.8685 50.2188 18.7165C48.9388 17.5485 48.2988 15.9645 48.2988 13.9645C48.2988 12.0925 48.8748 10.5405 50.0268 9.30855C51.1788 8.07655 52.6828 7.46055 54.5388 7.46055C56.2828 7.46055 57.6828 8.00455 58.7388 9.09255C59.8108 10.1805 60.3468 11.6605 60.3468 13.5325C60.3468 14.0125 60.3068 14.4925 60.2268 14.9725H51.6108C52.0108 16.7965 53.3948 17.7085 55.7628 17.7085C57.2988 17.7085 58.6428 17.4125 59.7948 16.8205L60.1308 19.4365C58.9308 20.1085 57.3548 20.4445 55.4028 20.4445ZM51.5868 12.6445H57.1548C57.0748 11.7965 56.7948 11.1485 56.3148 10.7005C55.8508 10.2365 55.2268 10.0045 54.4428 10.0045C53.6748 10.0045 53.0428 10.2365 52.5468 10.7005C52.0508 11.1485 51.7308 11.7965 51.5868 12.6445ZM63.3619 20.0605V0.620545H66.6979V12.4045L71.0899 7.84455H75.2179L69.7219 13.3165L76.1059 20.0605H71.8099L66.6979 14.4925V20.0605H63.3619ZM83.6029 20.0605L76.6909 1.82055H80.7469L85.6189 16.0765L90.4669 1.82055H94.4029L87.4669 20.0605H83.6029ZM100.508 20.4445C98.6996 20.4765 97.1476 19.8685 95.8516 18.6205C94.5556 17.3725 93.9156 15.8125 93.9316 13.9405C93.8996 12.1805 94.5156 10.6605 95.7796 9.38055C97.0596 8.08455 98.6356 7.44455 100.508 7.46055C102.316 7.42855 103.868 8.03655 105.164 9.28455C106.46 10.5165 107.1 12.0685 107.084 13.9405C107.116 15.7165 106.492 17.2525 105.212 18.5485C103.948 19.8285 102.38 20.4605 100.508 20.4445ZM98.1796 16.4845C98.7876 17.1405 99.5636 17.4685 100.508 17.4685C101.452 17.4685 102.228 17.1405 102.836 16.4845C103.444 15.8285 103.748 14.9805 103.748 13.9405C103.748 12.9165 103.444 12.0765 102.836 11.4205C102.244 10.7645 101.468 10.4365 100.508 10.4365C99.5476 10.4365 98.7636 10.7645 98.1556 11.4205C97.5636 12.0765 97.2676 12.9165 97.2676 13.9405C97.2676 14.9805 97.5716 15.8285 98.1796 16.4845ZM109.932 20.0605V7.84455H113.268V20.0605H109.932ZM113.004 4.79655C112.636 5.16455 112.164 5.34855 111.588 5.34855C111.012 5.34855 110.532 5.16455 110.148 4.79655C109.78 4.41255 109.596 3.94855 109.596 3.40455C109.596 2.86055 109.78 2.40455 110.148 2.03655C110.532 1.66855 111.012 1.48455 111.588 1.48455C112.164 1.48455 112.636 1.66855 113.004 2.03655C113.388 2.40455 113.58 2.86055 113.58 3.40455C113.58 3.96455 113.388 4.42855 113.004 4.79655ZM122.847 20.3725C120.831 20.3725 119.207 19.7965 117.975 18.6445C116.743 17.4925 116.127 15.9485 116.127 14.0125C116.127 12.1085 116.735 10.5565 117.951 9.35655C119.183 8.14055 120.807 7.53255 122.823 7.53255C124.423 7.53255 125.735 7.82855 126.759 8.42055L126.351 11.2525C125.247 10.7405 124.175 10.4845 123.135 10.4845C122.015 10.4845 121.119 10.7965 120.447 11.4205C119.791 12.0445 119.463 12.8845 119.463 13.9405C119.463 15.0285 119.799 15.8845 120.471 16.5085C121.143 17.1165 122.063 17.4205 123.231 17.4205C124.271 17.4205 125.383 17.1725 126.567 16.6765L126.903 19.4125C125.799 20.0525 124.447 20.3725 122.847 20.3725ZM135.981 20.4445C133.821 20.4445 132.093 19.8685 130.797 18.7165C129.517 17.5485 128.877 15.9645 128.877 13.9645C128.877 12.0925 129.453 10.5405 130.605 9.30855C131.757 8.07655 133.261 7.46055 135.117 7.46055C136.861 7.46055 138.261 8.00455 139.317 9.09255C140.389 10.1805 140.925 11.6605 140.925 13.5325C140.925 14.0125 140.885 14.4925 140.805 14.9725H132.189C132.589 16.7965 133.973 17.7085 136.341 17.7085C137.877 17.7085 139.221 17.4125 140.373 16.8205L140.709 19.4365C139.509 20.1085 137.933 20.4445 135.981 20.4445ZM132.165 12.6445H137.733C137.653 11.7965 137.373 11.1485 136.893 10.7005C136.429 10.2365 135.805 10.0045 135.021 10.0045C134.253 10.0045 133.621 10.2365 133.125 10.7005C132.629 11.1485 132.309 11.7965 132.165 12.6445ZM145.764 20.2045C145.156 20.2045 144.66 20.0205 144.276 19.6525C143.892 19.2685 143.7 18.7885 143.7 18.2125C143.7 17.6365 143.892 17.1725 144.276 16.8205C144.676 16.4525 145.172 16.2685 145.764 16.2685C146.356 16.2685 146.844 16.4525 147.228 16.8205C147.612 17.1885 147.804 17.6525 147.804 18.2125C147.804 18.7885 147.612 19.2685 147.228 19.6525C146.844 20.0205 146.356 20.2045 145.764 20.2045ZM155.611 20.4445C153.979 20.4445 152.627 19.8525 151.555 18.6685C150.483 17.4685 149.947 15.9085 149.947 13.9885C149.915 12.2125 150.467 10.6765 151.603 9.38055C152.739 8.08455 154.131 7.44455 155.779 7.46055C156.611 7.46055 157.363 7.63655 158.035 7.98855C158.723 8.32455 159.267 8.80455 159.667 9.42855L159.715 7.84455H162.907V20.0605H159.715L159.667 18.5005C158.819 19.7965 157.467 20.4445 155.611 20.4445ZM154.195 16.4845C154.803 17.1405 155.579 17.4685 156.523 17.4685C157.467 17.4685 158.243 17.1405 158.851 16.4845C159.459 15.8285 159.763 14.9805 159.763 13.9405C159.763 12.9165 159.459 12.0765 158.851 11.4205C158.259 10.7645 157.483 10.4365 156.523 10.4365C155.563 10.4365 154.779 10.7645 154.171 11.4205C153.579 12.0765 153.283 12.9165 153.283 13.9405C153.283 14.9805 153.587 15.8285 154.195 16.4845ZM166.464 20.0605V7.84455H169.8V20.0605H166.464ZM169.536 4.79655C169.168 5.16455 168.696 5.34855 168.12 5.34855C167.544 5.34855 167.064 5.16455 166.68 4.79655C166.312 4.41255 166.128 3.94855 166.128 3.40455C166.128 2.86055 166.312 2.40455 166.68 2.03655C167.064 1.66855 167.544 1.48455 168.12 1.48455C168.696 1.48455 169.168 1.66855 169.536 2.03655C169.92 2.40455 170.112 2.86055 170.112 3.40455C170.112 3.96455 169.92 4.42855 169.536 4.79655Z" fill="#19191B"/>
</svg>
