<svg width="20" height="17" viewBox="0 0 20 17" fill="none" xmlns="http://www.w3.org/2000/svg">
<path d="M7.84784 11.1282L7.517 15.741C7.99034 15.741 8.19534 15.5395 8.44118 15.2974L10.6604 13.195L15.2588 16.5333C16.1022 16.9992 16.6964 16.7538 16.9239 15.7642L19.9423 1.74389L19.9431 1.74306C20.2106 0.507244 19.4923 0.0239852 18.6706 0.327158L0.928504 7.06056C-0.282359 7.52647 -0.264025 8.1956 0.722666 8.49877L5.25861 9.89733L15.7947 3.36219C16.2905 3.03671 16.7414 3.2168 16.3705 3.54227L7.84784 11.1282Z" fill="white"/>
<path d="M7.84784 11.1282L7.517 15.741C7.99034 15.741 8.19534 15.5395 8.44118 15.2974L10.6604 13.195L15.2588 16.5333C16.1022 16.9992 16.6964 16.7538 16.9239 15.7642L19.9423 1.74389L19.9431 1.74306C20.2106 0.507244 19.4923 0.0239852 18.6706 0.327158L0.928504 7.06056C-0.282359 7.52647 -0.264025 8.1956 0.722666 8.49877L5.25861 9.89733L15.7947 3.36219C16.2905 3.03671 16.7414 3.2168 16.3705 3.54227L7.84784 11.1282Z" fill="black"/>
</svg>
